<svg width="301" height="209" viewBox="0 0 301 209" fill="none" xmlns="http://www.w3.org/2000/svg">
<path fill-rule="evenodd" clip-rule="evenodd" d="M224.5 270C289.393 270 342 217.393 342 152.5C342 87.6065 289.393 35 224.5 35C159.607 35 107 87.6065 107 152.5C107 217.393 159.607 270 224.5 270Z" fill="#20402A" fill-opacity="0.1"/>
<path fill-rule="evenodd" clip-rule="evenodd" d="M67.6564 93.019L72.4931 91.2981C73.0465 91.13 73.5427 91.6955 73.3357 92.2549L71.2322 97.086C71.1485 97.3077 71.1764 97.5583 71.3056 97.7539L73.8788 101.696C74.2017 102.192 73.8392 102.859 73.2652 102.825L68.6957 102.555C68.4667 102.541 68.2465 102.643 68.1056 102.833L65.0231 107.422C64.5871 108.309 64.0058 108.052 63.859 107.473L62.9166 101.731C62.8579 101.5 62.695 101.315 62.4792 101.234L57.3475 99.6079C56.8073 99.4046 56.9453 98.9247 57.4297 98.6007L61.8833 95.7548C62.0756 95.6264 62.1945 95.4064 62.2018 95.1679L61.9273 89.7025C61.9449 89.1018 62.6157 88.7854 63.0605 89.1645L67.0223 92.8845C67.1999 93.0343 67.4363 93.0848 67.6564 93.019Z" fill="#76E699"/>
<path fill-rule="evenodd" clip-rule="evenodd" d="M32.9992 88L24 98.8917L35.7234 106L42 95.6266L32.9992 88Z" fill="#F2699F"/>
<path fill-rule="evenodd" clip-rule="evenodd" d="M106.499 47L98 57.8917L109.072 65L115 54.6266L106.499 47Z" fill="#F2699F"/>
<path fill-rule="evenodd" clip-rule="evenodd" d="M65.4993 57L57 67.8908L68.0721 75L74 64.6274L65.4993 57Z" fill="#FFD100"/>
<path fill-rule="evenodd" clip-rule="evenodd" d="M60.5325 157L54 166.847L60.5325 173L73 169.924L60.5325 157Z" fill="#76E699"/>
<path fill-rule="evenodd" clip-rule="evenodd" d="M6.53157 161L0 170.847L6.53157 177L19 173.923L6.53157 161Z" fill="#FFD100"/>
<path fill-rule="evenodd" clip-rule="evenodd" d="M55.6725 133.702L60.2782 131.197C60.8102 130.938 61.4327 131.358 61.3299 131.907L60.1479 136.718C60.1065 136.935 60.1847 137.159 60.3564 137.314L63.78 140.409C64.2108 140.797 63.9731 141.475 63.3783 141.555L58.6469 142.193C58.4108 142.224 58.2053 142.362 58.1011 142.561L55.8642 147.343C55.5959 148.233 54.9504 148.112 54.6836 147.611L52.5678 142.561C52.4621 142.362 52.2581 142.224 52.022 142.193L46.4444 141.704C45.8495 141.623 45.8955 141.158 46.3248 140.77L50.3125 137.314C50.4827 137.159 50.5609 136.935 50.5195 136.718L49.1443 131.787C49.0431 131.238 49.6655 130.82 50.196 131.078L54.9964 133.702C55.208 133.805 55.4609 133.805 55.6725 133.702Z" fill="#FFD100"/>
<path fill-rule="evenodd" clip-rule="evenodd" d="M29.1352 49.8614L33.485 47.2089C33.9874 46.9349 34.5753 47.379 34.4783 47.96L33.3619 53.0543C33.3228 53.2846 33.3966 53.521 33.5588 53.685L36.7922 56.9623C37.1991 57.3733 36.9746 58.0913 36.4128 58.1756L31.9443 58.8515C31.7213 58.8847 31.5273 59.0307 31.4288 59.2414L29.3162 64.3041C29.0628 65.2464 28.4532 65.1185 28.2012 64.5886L26.203 59.2414C26.1031 59.0307 25.9105 58.8847 25.6875 58.8515L20.4197 58.3337C19.8578 58.2479 19.9013 57.7556 20.3067 57.3446L24.073 53.685C24.2337 53.521 24.3075 53.2846 24.2684 53.0543L22.9696 47.8336C22.874 47.2525 23.4619 46.8099 23.9629 47.0824L28.4966 49.8614C28.6964 49.9697 28.9353 49.9697 29.1352 49.8614Z" fill="#FFD100"/>
<path fill-rule="evenodd" clip-rule="evenodd" d="M12.0352 130.708C15.572 127.563 18.8748 128.497 21.8512 131.949C23.2867 133.611 26.9058 139.093 23.5192 140.491C21.6519 141.262 19.1391 139.86 18.2682 138.269C17.3006 136.501 17.5129 134.213 18.0487 132.35C19.5362 127.19 23.3084 124.942 28.363 124.088C29.3002 123.929 29.1197 122.646 28.363 122.391C19.0033 119.238 9.77221 136.031 17.9751 141.731C20.732 143.647 26.0075 143.674 27.0155 139.849C28.0062 136.085 24.8998 131.616 22.2253 129.264C18.8849 126.324 13.4043 125.224 11.0705 129.975C10.7687 130.588 11.5009 131.182 12.0352 130.708Z" fill="#E56464"/>
<path fill-rule="evenodd" clip-rule="evenodd" d="M83.7193 106.765C83.6189 102.82 90.3814 102.963 92.5313 104.816C94.031 106.106 94.5095 108.399 94.4237 110.304C94.3292 112.403 93.4448 114.277 92.3334 111.421C90.3959 106.447 91.2425 99.2001 97.9468 99.4139C100.101 99.4827 102.238 100.502 103.471 102.315C104.453 103.76 105.943 109.329 102.505 107.233C97.6777 104.295 102.798 94.2785 106.18 92.2504C106.834 91.8565 106.402 90.8388 105.666 91.0218C97.1845 93.129 94.9575 112.502 105.975 109.691C106.35 109.594 106.767 109.232 106.831 108.827C107.592 103.961 105.807 99.1079 100.859 97.4502C96.6914 96.0547 91.8011 97.6025 89.7908 101.682C88.5806 104.141 88.6431 107.015 89.2089 109.636C89.6395 111.628 90.7028 115.904 93.3764 115.997C98.8806 116.189 96.6609 105.485 94.3073 103.267C92.0338 101.121 88.1776 100.865 85.3426 101.877C83.184 102.649 81.0181 104.735 82.4741 107.103C82.813 107.654 83.7367 107.452 83.7193 106.765Z" fill="#F2699F"/>
<path d="M221.5 68L221 79C223.825 82.17 228.385 83.61 234 84C240.23 82.855 245.28 80.89 249 78L248 61.5L221.5 68Z" fill="#FFA382"/>
<path d="M221.5 68V71L231.5 68H221.5Z" fill="#FE7649"/>
<path d="M216.5 23.5V27.175C216.499 27.6981 216.206 28.1768 215.74 28.4149C215.274 28.653 214.715 28.6106 214.29 28.305C211.74 26.5 209 21.435 207.875 16.03C206.46 9.03 212.375 2.635 219.425 3.64C221.621 3.96682 223.742 4.67946 225.69 5.745C226.023 5.92577 226.415 5.96342 226.776 5.84932C227.137 5.73522 227.436 5.47917 227.605 5.14C231.425 -2.65 237.21 -0.140001 243.845 6.805C244.241 7.21502 244.849 7.34006 245.375 7.12C253.59 3.695 256.5 6.24 255.725 13C255.682 13.3749 255.793 13.7512 256.034 14.0419C256.275 14.3326 256.624 14.5125 257 14.54C265.185 15.14 263.215 21.835 258.17 30.375C257.81 30.9738 257.064 31.2167 256.42 30.945C253.635 29.84 251.63 31.66 249.875 34.395C249.636 34.7651 249.584 35.226 249.735 35.64C254.075 47.535 251.025 62.745 249.235 64.75C247.235 66.98 237.915 72.295 220.46 68.3C220.311 68.2714 220.169 68.2154 220.04 68.135C216.34 65.915 215.19 59.81 215.485 51.5" fill="#001047"/>
<path d="M249 33.5C249.546 32.0509 250.642 30.8758 252.05 30.23C253.556 29.5134 255.345 29.7696 256.59 30.88C257.969 32.0438 258.835 33.7033 259 35.5C259.295 38.14 257.615 39.855 255.125 41.185C254.69 41.421 254.216 41.5736 253.725 41.635C252.374 41.8638 250.994 41.4433 250 40.5" fill="#FFA385"/>
<path d="M239.5 28.45C242.293 28.5006 244.699 30.4334 245.35 33.15C245.763 35.0732 245.981 37.0331 246 39C246.23 45.605 246.085 51.82 244.63 56.655C243.715 59.6843 240.648 61.5222 237.545 60.9C232.625 59.955 228 60.02 223.795 61.52C221.053 62.4555 218.03 61.3519 216.535 58.87C216.47 58.765 216.405 58.66 216.345 58.55C215.786 57.5907 215.504 56.4951 215.53 55.385L215.98 29.18C215.985 28.8675 216.115 28.5699 216.34 28.3532C216.565 28.1364 216.868 28.0183 217.18 28.025L239.5 28.45Z" fill="#FF9C78"/>
<path d="M219 31.5C220.645 30.21 222.18 29.89 223.5 31.5" stroke="#A9552B" stroke-width="0.5"/>
<path d="M233.5 32C235.215 31.195 236.805 30.85 238 32" stroke="#A9552B" stroke-width="0.5"/>
<path d="M222 45C222.552 45 223 44.2165 223 43.25C223 42.2835 222.552 41.5 222 41.5C221.448 41.5 221 42.2835 221 43.25C221 44.2165 221.448 45 222 45Z" fill="#000F47"/>
<path d="M235.5 45C236.052 45 236.5 44.2165 236.5 43.25C236.5 42.2835 236.052 41.5 235.5 41.5C234.948 41.5 234.5 42.2835 234.5 43.25C234.5 44.2165 234.948 45 235.5 45Z" fill="#000F47"/>
<path d="M229.5 45C227.672 46.9397 226.455 49.3739 226 52C227.405 53.11 229.135 53.035 231 52.5" stroke="#A9552B" stroke-width="0.5"/>
<path d="M232 55.5C233.5 55.5 237.5 55 238.5 53" stroke="#000F47" stroke-width="0.5" stroke-linecap="round" stroke-linejoin="round"/>
<path fill-rule="evenodd" clip-rule="evenodd" d="M220.625 47.25C224.422 47.25 227.5 44.172 227.5 40.375C227.5 36.578 224.422 33.5 220.625 33.5C216.828 33.5 213.75 36.578 213.75 40.375C213.75 44.172 216.828 47.25 220.625 47.25Z" stroke="#000F47" stroke-width="0.5" stroke-linecap="round" stroke-linejoin="round"/>
<path fill-rule="evenodd" clip-rule="evenodd" d="M236.595 47.25C240.392 47.25 243.47 44.172 243.47 40.375C243.47 36.578 240.392 33.5 236.595 33.5C232.798 33.5 229.72 36.578 229.72 40.375C229.72 44.172 232.798 47.25 236.595 47.25Z" stroke="#000F47" stroke-width="0.5" stroke-linecap="round" stroke-linejoin="round"/>
<path d="M227.75 40.25H229.75" stroke="#000F47" stroke-width="0.5" stroke-linecap="round" stroke-linejoin="round"/>
<path d="M243.25 40.25H246.06" stroke="#000F47" stroke-width="0.5" stroke-linejoin="round"/>
<path d="M252.935 31.29C254.79 30.69 256.09 31.29 256.75 33.25" stroke="#A9552B" stroke-width="0.5"/>
<path d="M300.6 136.73C300.69 140.46 293.1 143.51 289.375 143.32C287.035 143.206 284.718 142.806 282.475 142.13C280.392 141.52 278.141 142.003 276.493 143.416C274.844 144.828 274.021 146.978 274.305 149.13L280.83 200.245C281.063 202.07 280.504 203.908 279.294 205.294C278.085 206.681 276.34 207.483 274.5 207.5L187.25 207.93C185.447 207.947 183.72 207.206 182.489 205.889C181.258 204.571 180.636 202.798 180.775 201L186.5 124.585C186.65 122.614 185.885 120.683 184.425 119.35L171.77 107.78C170.151 106.306 169.396 104.107 169.77 101.95C171.21 93.83 174.245 86.32 182.455 80.79C183.253 80.2511 184.162 79.899 185.115 79.76C196.55 78.07 207.715 76.685 218.475 75.76L219.235 75.695C229.425 84.8 240.405 82.695 251.805 74.505H252.475C260.671 74.6662 268.845 75.4098 276.935 76.73C277.845 76.8843 278.71 77.2358 279.47 77.76C286.22 82.375 295.795 89.905 299.4 99.99C299.629 100.633 299.752 101.308 299.765 101.99L300.6 136.73Z" fill="#76E699"/>
<path d="M252.5 74V74.5L249.5 189L216.5 187.5L218.5 75.75V75C218.75 75.235 219 75.465 219.245 75.685C229.435 84.79 240.415 82.685 251.815 74.495L252.5 74Z" fill="#F6FCFF"/>
<path d="M218.5 75C225.815 81.6 235.46 84.5 253 75" stroke="#1D3332" stroke-width="2.5"/>
<path d="M234 96.5C235.105 96.5 236 95.6046 236 94.5C236 93.3954 235.105 92.5 234 92.5C232.895 92.5 232 93.3954 232 94.5C232 95.6046 232.895 96.5 234 96.5Z" fill="#1D3332"/>
<path d="M275.01 152.185L275.79 160L261.46 143.845L275.01 152.185Z" fill="#428055"/>
<path d="M234 104C235.105 104 236 103.105 236 102C236 100.895 235.105 100 234 100C232.895 100 232 100.895 232 102C232 103.105 232.895 104 234 104Z" fill="#1D3332"/>
<path d="M300.5 132C279.25 125.93 249.275 116.25 244.5 117C241.17 112.03 237.22 110.53 233 110.5C231.315 112.585 232.355 113.94 234.5 115C229.575 116.235 223.72 127.07 223.37 128.425C222.53 131.425 222.93 134.425 224.5 137.5C225.86 134.12 228 131.705 231.5 131C234.895 134.285 238.825 134.6 243 133.5L245 130.5C262.675 145.945 281.145 157.89 300.5 166" fill="#FFA483"/>
<path d="M239.5 115C230.955 115.225 226.345 120.04 224 127.5" stroke="#000111" stroke-width="0.5"/>
<path d="M231.5 131.5C230.5 127.83 230.595 124.71 233.5 123" stroke="#000111" stroke-width="0.5"/>
<path opacity="0.3" d="M216 208H224.5L218 76L216 208Z" fill="#1F2E3D"/>
<path d="M235.25 132.75C233.95 130.025 234.075 127.5 236.25 125.25" stroke="#000111" stroke-width="0.5"/>
<path d="M244.25 131.75C244.25 131.75 242.25 130.75 241.25 130.75C240.522 130.557 239.841 130.217 239.25 129.75" stroke="#000111" stroke-width="0.5"/>
<path d="M239.25 131.75L241.25 130.75" stroke="#000111" stroke-width="0.5"/>
<path d="M291.095 129.145L263.35 120.99" stroke="#000111" stroke-width="0.5"/>
<path opacity="0.1" d="M171.5 77.5H224L237.5 110.5L185 113" fill="#022AB7"/>
<path opacity="0.1" d="M130 94.5H207.5L228.5 145L147 147" fill="#022AB7"/>
<path d="M256 151V157.5H223.5V151" fill="#8492AC"/>
<path d="M223.5 151V157.5H138.5V151" fill="#E1E5ED"/>
<path d="M125 100.5L203.5 101L223.5 151H143" fill="#F4F3F2"/>
<path d="M156.11 100.65L135 128.5L125 100.5" fill="#BFCAD4"/>
<path d="M139.92 159.235C139.73 159.19 139.55 159.135 139.375 159.08C136.921 158.224 135.433 155.731 135.845 153.165L136 132L141.205 141.7C141.281 142.035 141.491 142.324 141.786 142.5C142.08 142.677 142.434 142.725 142.765 142.635C150.56 140.5 157.045 140.575 161 145C160.675 146.18 159.825 146.835 158.5 147C159.84 147.745 160.565 149 161 150.5C160.055 151.86 158.64 152.185 157 152C158.46 152.765 159.725 153.705 160 155.5C159.795 156.34 158.705 156.705 157.5 157H190.35C190.697 157.001 191.017 157.187 191.19 157.488C191.362 157.79 191.36 158.16 191.185 158.46C186.495 166.155 177.73 169.96 166.845 171.79C165.955 171.943 165.045 171.943 164.155 171.79C155.8 170.315 148.31 167.265 142.655 160.88C141.932 160.066 140.978 159.492 139.92 159.235Z" fill="#FFA583"/>
<path d="M150.5 151.5C150.5 151.5 155.945 150.96 157.72 152.5" stroke="#000111" stroke-width="0.5"/>
<path d="M151.5 146C151.5 146 156 145.5 158.5 147" stroke="#000111" stroke-width="0.5"/>
<path d="M135.5 155.5C138.18 159.16 141.815 160.245 146.5 158.5" stroke="#000111" stroke-width="0.5"/>
<path d="M161.09 157H191.185C191.429 157.008 191.649 157.152 191.754 157.373C191.859 157.594 191.833 157.855 191.685 158.05L189.005 161.595C188.886 161.753 188.703 161.85 188.505 161.86C179.03 161.99 169.87 160.36 160.945 158.295C160.617 158.224 160.396 157.916 160.433 157.582C160.471 157.248 160.754 156.997 161.09 157Z" fill="#E8957C"/>
<path d="M219.75 156C220.44 156 221 155.44 221 154.75C221 154.06 220.44 153.5 219.75 153.5C219.06 153.5 218.5 154.06 218.5 154.75C218.5 155.44 219.06 156 219.75 156Z" fill="#022AB7"/>
<rect x="230.5" y="153.5" width="5" height="2.5" rx="1.01" fill="#022AB7"/>
<rect x="239" y="153.5" width="5" height="2.5" rx="1.01" fill="#022AB7"/>
<path d="M216 188L216.515 207.5L248.455 209L250 188.5" fill="#1F2E3D"/>
</svg>
