<svg width="72" height="72" viewBox="0 0 72 72" fill="none" xmlns="http://www.w3.org/2000/svg">
<path d="M30.0225 28.7272C31.4525 28.7272 32.5834 29.0572 33.4153 29.7172C34.2472 30.3703 34.6631 31.2469 34.6631 32.3469C34.6631 33.8938 33.735 35.1244 31.8787 36.0388C33.0612 36.63 33.9 37.2522 34.395 37.9053C34.8969 38.5584 35.1478 39.2872 35.1478 40.0916C35.1478 41.3359 34.6906 42.3328 33.7762 43.0822C32.8619 43.8316 31.6244 44.2062 30.0637 44.2062C28.4275 44.2062 27.1591 43.8556 26.2584 43.1544C25.3578 42.4531 24.9075 41.4597 24.9075 40.1741C24.9075 39.3353 25.1412 38.5825 25.6087 37.9156C26.0831 37.2419 26.8566 36.6438 27.9291 36.1213C27.0078 35.5713 26.3512 34.9903 25.9594 34.3784C25.5675 33.7666 25.3716 33.0791 25.3716 32.3159C25.3716 31.2228 25.8012 30.3531 26.6606 29.7069C27.52 29.0538 28.6406 28.7272 30.0225 28.7272ZM27.2278 40.0916C27.2278 40.8066 27.4787 41.3634 27.9806 41.7622C28.4825 42.1541 29.1631 42.35 30.0225 42.35C30.9094 42.35 31.5969 42.1472 32.085 41.7416C32.58 41.3291 32.8275 40.7722 32.8275 40.0709C32.8275 39.5141 32.6006 39.0053 32.1469 38.5447C31.6931 38.0841 31.0056 37.6578 30.0844 37.2659L29.7853 37.1319C28.8778 37.5306 28.2247 37.9706 27.8259 38.4519C27.4272 38.9263 27.2278 39.4728 27.2278 40.0916ZM30.0019 30.5938C29.3144 30.5938 28.7609 30.7656 28.3416 31.1094C27.9222 31.4463 27.7125 31.9069 27.7125 32.4913C27.7125 32.8488 27.7881 33.1684 27.9394 33.4503C28.0906 33.7322 28.3106 33.99 28.5994 34.2238C28.8881 34.4506 29.3762 34.7256 30.0637 35.0488C30.8887 34.6844 31.4697 34.3028 31.8066 33.9041C32.1503 33.4984 32.3222 33.0275 32.3222 32.4913C32.3222 31.9069 32.1091 31.4463 31.6828 31.1094C31.2634 30.7656 30.7031 30.5938 30.0019 30.5938ZM42.1087 34.5847C43.6281 34.5847 44.8312 34.9869 45.7181 35.7913C46.605 36.5956 47.0484 37.6922 47.0484 39.0809C47.0484 40.6897 46.5431 41.9478 45.5325 42.8553C44.5287 43.7559 43.0987 44.2062 41.2425 44.2062C39.5581 44.2062 38.2347 43.9347 37.2722 43.3916V41.195C37.8291 41.5113 38.4684 41.7553 39.1903 41.9272C39.9122 42.0991 40.5825 42.185 41.2012 42.185C42.2944 42.185 43.1262 41.9409 43.6969 41.4528C44.2675 40.9647 44.5528 40.2497 44.5528 39.3078C44.5528 37.5066 43.4047 36.6059 41.1084 36.6059C40.7853 36.6059 40.3866 36.6403 39.9122 36.7091C39.4378 36.7709 39.0219 36.8431 38.6644 36.9256L37.5816 36.2863L38.1591 28.9231H45.9966V31.0784H40.2937L39.9534 34.8116C40.1941 34.7703 40.4862 34.7222 40.83 34.6672C41.1806 34.6122 41.6069 34.5847 42.1087 34.5847Z" fill="#222222"/>
<path d="M4 36C4 53.6731 18.3269 68 36 68C53.6731 68 68 53.6731 68 36C68 18.3269 53.6731 4 36 4" stroke="#7E52E8" stroke-width="6.7"/>
<path opacity="0.4" fill-rule="evenodd" clip-rule="evenodd" d="M36 59C48.7025 59 59 48.7025 59 36C59 23.2975 48.7025 13 36 13C23.2975 13 13 23.2975 13 36C13 48.7025 23.2975 59 36 59Z" stroke="#979797"/>
</svg>
