<svg width="82" height="82" viewBox="0 0 82 82" fill="none" xmlns="http://www.w3.org/2000/svg">
<path d="M28.9694 41.5753C28.9694 35.6766 31.3722 32.7272 36.1778 32.7272C36.9341 32.7272 37.5734 32.7856 38.0959 32.9025V34.9238C37.5734 34.7725 36.9684 34.6969 36.2809 34.6969C34.6653 34.6969 33.4519 35.13 32.6406 35.9963C31.8294 36.8625 31.3894 38.2513 31.3206 40.1625H31.4444C31.7675 39.6056 32.2212 39.1759 32.8056 38.8734C33.39 38.5641 34.0775 38.4094 34.8681 38.4094C36.2362 38.4094 37.3019 38.8288 38.065 39.6675C38.8281 40.5063 39.2097 41.6441 39.2097 43.0809C39.2097 44.6622 38.7662 45.9134 37.8794 46.8347C36.9994 47.7491 35.7962 48.2062 34.27 48.2062C33.1906 48.2062 32.2522 47.9484 31.4547 47.4328C30.6572 46.9103 30.0419 46.1541 29.6087 45.1641C29.1825 44.1672 28.9694 42.9709 28.9694 41.5753ZM34.2287 46.2056C35.0606 46.2056 35.7 45.9375 36.1469 45.4013C36.6006 44.865 36.8275 44.0984 36.8275 43.1016C36.8275 42.2353 36.6144 41.5547 36.1881 41.0597C35.7687 40.5647 35.1362 40.3172 34.2906 40.3172C33.7681 40.3172 33.2869 40.4306 32.8469 40.6575C32.4069 40.8775 32.0597 41.1834 31.8053 41.5753C31.5509 41.9603 31.4237 42.3556 31.4237 42.7613C31.4237 43.7306 31.685 44.5488 32.2075 45.2156C32.7369 45.8756 33.4106 46.2056 34.2287 46.2056ZM51.2134 40.4616C51.2134 43.0809 50.7906 45.0266 49.945 46.2984C49.1062 47.5703 47.8206 48.2062 46.0881 48.2062C44.4106 48.2062 43.1387 47.5497 42.2725 46.2366C41.4062 44.9234 40.9731 42.9984 40.9731 40.4616C40.9731 37.8009 41.3925 35.8416 42.2312 34.5834C43.0769 33.3184 44.3625 32.6859 46.0881 32.6859C47.7725 32.6859 49.0478 33.3459 49.9141 34.6659C50.7803 35.9859 51.2134 37.9178 51.2134 40.4616ZM43.4275 40.4616C43.4275 42.5172 43.6372 43.985 44.0566 44.865C44.4828 45.745 45.16 46.185 46.0881 46.185C47.0162 46.185 47.6934 45.7381 48.1197 44.8444C48.5528 43.9506 48.7694 42.4897 48.7694 40.4616C48.7694 38.4403 48.5528 36.9794 48.1197 36.0788C47.6934 35.1713 47.0162 34.7175 46.0881 34.7175C45.16 34.7175 44.4828 35.1609 44.0566 36.0478C43.6372 36.9347 43.4275 38.4059 43.4275 40.4616Z" fill="#222222"/>
<path d="M35.4433 9.48615C18.0386 12.5551 6.41725 29.1521 9.48615 46.5567C12.5551 63.9614 29.1521 75.5828 46.5567 72.5138C63.9614 69.4449 75.5828 52.8479 72.5138 35.4433" stroke="#F14D19" stroke-width="6.7"/>
<path opacity="0.4" fill-rule="evenodd" clip-rule="evenodd" d="M40 63C52.7025 63 63 52.7025 63 40C63 27.2975 52.7025 17 40 17C27.2975 17 17 27.2975 17 40C17 52.7025 27.2975 63 40 63Z" stroke="#979797"/>
</svg>
