<svg width="13" height="15" viewBox="0 0 13 15" fill="none" xmlns="http://www.w3.org/2000/svg">
<path d="M11.0235 12.1898H10.5235V12.6898H11.0235V12.1898ZM11.0235 2.23922V1.73922H10.5235V2.23922H11.0235ZM11.1333 12.1898V12.6898H11.6333V12.1898H11.1333ZM11.1333 2.23922H11.6333V1.73922H11.1333V2.23922ZM11.5235 12.1898V2.23922H10.5235V12.1898H11.5235ZM11.1333 11.6898H11.0235V12.6898H11.1333V11.6898ZM10.6333 2.23922V12.1898H11.6333V2.23922H10.6333ZM11.0235 2.73922H11.1333V1.73922H11.0235V2.73922ZM10.3235 1.82973C10.3235 1.66928 10.4536 1.53922 10.614 1.53922V0.539215C9.90131 0.539215 9.32353 1.117 9.32353 1.82973H10.3235ZM10.3235 12.5993V1.82973H9.32353V12.5993H10.3235ZM10.614 12.8898C10.4536 12.8898 10.3235 12.7598 10.3235 12.5993H9.32353C9.32353 13.312 9.90131 13.8898 10.614 13.8898V12.8898ZM11.5428 12.8898H10.614V13.8898H11.5428V12.8898ZM11.8333 12.5993C11.8333 12.7598 11.7033 12.8898 11.5428 12.8898V13.8898C12.2556 13.8898 12.8333 13.312 12.8333 12.5993H11.8333ZM11.8333 1.82973V12.5993H12.8333V1.82973H11.8333ZM11.5428 1.53922C11.7033 1.53922 11.8333 1.66928 11.8333 1.82973H12.8333C12.8333 1.117 12.2556 0.539215 11.5428 0.539215V1.53922ZM10.614 1.53922H11.5428V0.539215H10.614V1.53922ZM6.22189 4.51926H7.15066V3.51926H6.22189V4.51926ZM6.43137 4.30977C6.43137 4.42547 6.33758 4.51926 6.22189 4.51926V3.51926C5.7853 3.51926 5.43137 3.87318 5.43137 4.30977H6.43137ZM6.43137 12.5993V4.30977H5.43137V12.5993H6.43137ZM6.22189 12.3898C6.33758 12.3898 6.43137 12.4836 6.43137 12.5993H5.43137C5.43137 13.0359 5.7853 13.3898 6.22189 13.3898V12.3898ZM7.15066 12.3898H6.22189V13.3898H7.15066V12.3898ZM6.94118 12.5993C6.94118 12.4836 7.03497 12.3898 7.15066 12.3898V13.3898C7.58725 13.3898 7.94118 13.0359 7.94118 12.5993H6.94118ZM6.94118 4.30977V12.5993H7.94118V4.30977H6.94118ZM7.15066 4.51926C7.03497 4.51926 6.94118 4.42547 6.94118 4.30977H7.94118C7.94118 3.87318 7.58725 3.51926 7.15066 3.51926V4.51926ZM5.93137 4.30977C5.93137 4.14933 6.06144 4.01926 6.22189 4.01926V3.01926C5.50915 3.01926 4.93137 3.59704 4.93137 4.30977H5.93137ZM5.93137 12.5993V4.30977H4.93137V12.5993H5.93137ZM6.22189 12.8898C6.06144 12.8898 5.93137 12.7598 5.93137 12.5993H4.93137C4.93137 13.312 5.50915 13.8898 6.22189 13.8898V12.8898ZM7.15066 12.8898H6.22189V13.8898H7.15066V12.8898ZM7.44118 12.5993C7.44118 12.7598 7.31111 12.8898 7.15066 12.8898V13.8898C7.86339 13.8898 8.44118 13.312 8.44118 12.5993H7.44118ZM7.44118 4.30977V12.5993H8.44118V4.30977H7.44118ZM7.15066 4.01926C7.31111 4.01926 7.44118 4.14933 7.44118 4.30977H8.44118C8.44118 3.59704 7.86339 3.01926 7.15066 3.01926V4.01926ZM6.22189 4.01926H7.15066V3.01926H6.22189V4.01926ZM2.75851 7.18972H1.82973V8.18972H2.75851V7.18972ZM3.54902 7.98024C3.54902 7.54365 3.19509 7.18972 2.75851 7.18972V8.18972C2.64281 8.18972 2.54902 8.09593 2.54902 7.98024H3.54902ZM3.54902 12.7977V7.98024H2.54902V12.7977H3.54902ZM2.75851 13.5882C3.19509 13.5882 3.54902 13.2343 3.54902 12.7977H2.54902C2.54902 12.682 2.64281 12.5882 2.75851 12.5882V13.5882ZM1.82973 13.5882H2.75851V12.5882H1.82973V13.5882ZM1.03922 12.7977C1.03922 13.2343 1.39314 13.5882 1.82973 13.5882V12.5882C1.94542 12.5882 2.03922 12.682 2.03922 12.7977H1.03922ZM1.03922 7.98024V12.7977H2.03922V7.98024H1.03922ZM1.82973 7.18972C1.39314 7.18972 1.03922 7.54365 1.03922 7.98024H2.03922C2.03922 8.09593 1.94542 8.18972 1.82973 8.18972V7.18972ZM1.82973 6.68972C1.117 6.68972 0.539215 7.2675 0.539215 7.98024H1.53922C1.53922 7.81979 1.66928 7.68972 1.82973 7.68972V6.68972ZM2.75851 6.68972H1.82973V7.68972H2.75851V6.68972ZM4.04902 7.98024C4.04902 7.26751 3.47124 6.68972 2.75851 6.68972V7.68972C2.91895 7.68972 3.04902 7.81979 3.04902 7.98024H4.04902ZM4.04902 12.7977V7.98024H3.04902V12.7977H4.04902ZM2.75851 14.0882C3.47124 14.0882 4.04902 13.5105 4.04902 12.7977H3.04902C3.04902 12.9582 2.91895 13.0882 2.75851 13.0882V14.0882ZM1.82973 14.0882H2.75851V13.0882H1.82973V14.0882ZM0.539215 12.7977C0.539215 13.5105 1.117 14.0882 1.82973 14.0882V13.0882C1.66928 13.0882 1.53922 12.9582 1.53922 12.7977H0.539215ZM0.539215 7.98024V12.7977H1.53922V7.98024H0.539215Z" fill="#717171"/>
</svg>
