<svg width="16" height="14" viewBox="0 0 16 14" fill="none" xmlns="http://www.w3.org/2000/svg">
<path fill-rule="evenodd" clip-rule="evenodd" d="M15.2157 12.337V3.66183C15.2157 2.97235 14.653 2.41119 13.9614 2.41119H5.15205C4.91314 2.41119 4.69294 2.28111 4.57772 2.07228L4.36541 1.68729C4.14521 1.28771 3.72382 1.03922 3.26646 1.03922H2.03854C1.34694 1.03922 0.784302 1.60037 0.784302 2.28986V12.337C0.784302 13.0271 1.34694 13.5882 2.03854 13.5882H13.9614C14.653 13.5882 15.2157 13.0271 15.2157 12.337ZM2.03854 1.63654H3.26646C3.50537 1.63654 3.72557 1.76662 3.84079 1.97545L4.0531 2.36044C4.2733 2.76002 4.69469 3.00851 5.15205 3.00851H13.9614C14.3229 3.00851 14.6168 3.30134 14.6168 3.66183V4.62898H1.3832V2.28986C1.3832 1.92937 1.67709 1.63654 2.03854 1.63654ZM1.3832 5.22631V12.337C1.3832 12.6975 1.67709 12.9909 2.03854 12.9909H13.9614C14.3229 12.9909 14.6168 12.6975 14.6168 12.337V5.22631H1.3832Z" fill="#222222"/>
<path d="M4.57772 2.07228L4.31502 2.21715L4.31505 2.2172L4.57772 2.07228ZM4.36541 1.68729L4.10267 1.83208L4.10271 1.83215L4.36541 1.68729ZM3.84079 1.97545L4.1035 1.83058L4.10347 1.83052L3.84079 1.97545ZM4.0531 2.36044L4.31584 2.21565L4.3158 2.21557L4.0531 2.36044ZM14.6168 4.62898V4.92898H14.9168V4.62898H14.6168ZM1.3832 4.62898H1.0832V4.92898H1.3832V4.62898ZM1.3832 5.22631V4.92631H1.0832V5.22631H1.3832ZM14.6168 5.22631H14.9168V4.92631H14.6168V5.22631ZM14.9157 3.66183V12.337H15.5157V3.66183H14.9157ZM13.9614 2.71119C14.4881 2.71119 14.9157 3.13882 14.9157 3.66183H15.5157C15.5157 2.80587 14.8179 2.11119 13.9614 2.11119V2.71119ZM5.15205 2.71119H13.9614V2.11119H5.15205V2.71119ZM4.31505 2.2172C4.48307 2.52173 4.80391 2.71119 5.15205 2.71119V2.11119C5.02237 2.11119 4.90281 2.04048 4.84039 1.92735L4.31505 2.2172ZM4.10271 1.83215L4.31502 2.21715L4.84042 1.92741L4.62812 1.54242L4.10271 1.83215ZM3.26646 1.33922C3.61485 1.33922 3.9354 1.52855 4.10267 1.83208L4.62816 1.54249C4.35503 1.04687 3.83279 0.739215 3.26646 0.739215V1.33922ZM2.03854 1.33922H3.26646V0.739215H2.03854V1.33922ZM1.0843 2.28986C1.0843 1.76685 1.51183 1.33922 2.03854 1.33922V0.739215C1.18205 0.739215 0.484302 1.4339 0.484302 2.28986H1.0843ZM1.0843 12.337V2.28986H0.484302V12.337H1.0843ZM2.03854 13.2882C1.51192 13.2882 1.0843 12.8607 1.0843 12.337H0.484302C0.484302 13.1935 1.18195 13.8882 2.03854 13.8882V13.2882ZM13.9614 13.2882H2.03854V13.8882H13.9614V13.2882ZM14.9157 12.337C14.9157 12.8607 14.4881 13.2882 13.9614 13.2882V13.8882C14.818 13.8882 15.5157 13.1935 15.5157 12.337H14.9157ZM3.26646 1.33654H2.03854V1.93654H3.26646V1.33654ZM4.10347 1.83052C3.93545 1.52599 3.6146 1.33654 3.26646 1.33654V1.93654C3.39615 1.93654 3.5157 2.00724 3.57812 2.12037L4.10347 1.83052ZM4.3158 2.21557L4.1035 1.83058L3.57809 2.12032L3.79039 2.50531L4.3158 2.21557ZM5.15205 2.70851C4.80367 2.70851 4.48311 2.51918 4.31584 2.21565L3.79035 2.50524C4.06348 3.00085 4.58572 3.30851 5.15205 3.30851V2.70851ZM13.9614 2.70851H5.15205V3.30851H13.9614V2.70851ZM14.9168 3.66183C14.9168 3.13474 14.4876 2.70851 13.9614 2.70851V3.30851C14.1581 3.30851 14.3168 3.46794 14.3168 3.66183H14.9168ZM14.9168 4.62898V3.66183H14.3168V4.62898H14.9168ZM1.3832 4.92898H14.6168V4.32898H1.3832V4.92898ZM1.0832 2.28986V4.62898H1.6832V2.28986H1.0832ZM2.03854 1.33654C1.51233 1.33654 1.0832 1.76276 1.0832 2.28986H1.6832C1.6832 2.09597 1.84186 1.93654 2.03854 1.93654V1.33654ZM1.6832 12.337V5.22631H1.0832V12.337H1.6832ZM2.03854 12.6909C1.84221 12.6909 1.6832 12.5312 1.6832 12.337H1.0832C1.0832 12.8638 1.51198 13.2909 2.03854 13.2909V12.6909ZM13.9614 12.6909H2.03854V13.2909H13.9614V12.6909ZM14.3168 12.337C14.3168 12.5312 14.1578 12.6909 13.9614 12.6909V13.2909C14.488 13.2909 14.9168 12.8638 14.9168 12.337H14.3168ZM14.3168 5.22631V12.337H14.9168V5.22631H14.3168ZM1.3832 5.52631H14.6168V4.92631H1.3832V5.52631Z" fill="#717171"/>
</svg>
