<svg width="20" height="18" viewBox="0 0 20 18" fill="none" xmlns="http://www.w3.org/2000/svg">
  <path d="M18.8089 7.35312L10.2933 1.11814C10.1291 0.99793 9.906 0.99793 9.74186 1.11814L1.22614 7.35312C1.01814 7.50544 0.972945 7.79751 1.12526 8.00551C1.27758 8.21351 1.56968 8.25863 1.77765 8.10639L10.0175 2.07326L18.2574 8.10635C18.3405 8.16723 18.4371 8.19653 18.5328 8.19653C18.6765 8.19653 18.8183 8.13039 18.9098 8.00547C19.0621 7.79751 19.0169 7.50544 18.8089 7.35312Z" fill="#7E52E8" stroke="#7E52E8" stroke-width="0.5"/>
  <path d="M16.5525 8.21204C16.2947 8.21204 16.0857 8.42102 16.0857 8.67881V16.1086H12.3516V12.0529C12.3516 10.7659 11.3045 9.71891 10.0176 9.71891C8.73064 9.71891 7.68355 10.766 7.68355 12.0529V16.1086H3.94941V8.67884C3.94941 8.42105 3.7404 8.21207 3.48264 8.21207C3.22489 8.21207 3.01587 8.42105 3.01587 8.67884V16.5754C3.01587 16.8332 3.22489 17.0422 3.48264 17.0422H8.15033C8.3958 17.0422 8.59668 16.8526 8.61527 16.6118C8.6164 16.6009 8.6171 16.5889 8.6171 16.5754V12.053C8.6171 11.2807 9.24534 10.6525 10.0176 10.6525C10.7898 10.6525 11.4181 11.2808 11.4181 12.053V16.5754C11.4181 16.5889 11.4188 16.6006 11.4199 16.6114C11.4383 16.8523 11.6392 17.0422 11.8849 17.0422H16.5525C16.8103 17.0422 17.0193 16.8332 17.0193 16.5754V8.67884C17.0193 8.42102 16.8103 8.21204 16.5525 8.21204Z" fill="#7E52E8" stroke="#7E52E8" stroke-width="0.5"/>
  </svg>