<svg width="12" height="14" viewBox="0 0 12 14" fill="none" xmlns="http://www.w3.org/2000/svg">
<path d="M6.36929 8.63798H5.63071C5.36213 8.63798 5.14458 8.39763 5.14458 8.10089C5.14458 7.80415 5.36213 7.5638 5.63071 7.5638H6.93062C7.10788 7.5638 7.25291 7.40356 7.25291 7.20772C7.25291 7.01187 7.10788 6.85163 6.93062 6.85163H6.32095V6.35608C6.32095 6.16024 6.17592 6 5.99866 6C5.8214 6 5.67637 6.16024 5.67637 6.35608V6.85163H5.63071C5.00761 6.85163 4.5 7.41246 4.5 8.10089C4.5 8.78932 5.00761 9.35015 5.63071 9.35015H6.36929C6.63787 9.35015 6.85542 9.5905 6.85542 9.88724C6.85542 10.184 6.63787 10.4243 6.36929 10.4243H5.04521C4.86795 10.4243 4.72292 10.5846 4.72292 10.7804C4.72292 10.9763 4.86795 11.1365 5.04521 11.1365H5.67905V11.6439C5.67905 11.8398 5.82408 12 6.00134 12C6.1786 12 6.32363 11.8398 6.32363 11.6439V11.1365H6.37735C6.38004 11.1365 6.38272 11.1365 6.38541 11.1365C7.00313 11.1276 7.5 10.5697 7.5 9.88724C7.5 9.19881 6.99239 8.63798 6.36929 8.63798Z" fill="black"/>
<path fill-rule="evenodd" clip-rule="evenodd" d="M11.3088 7.99543C10.9429 7.15135 10.4376 6.33347 9.79865 5.56798C9.02614 4.63659 8.25653 4.01372 7.86447 3.72557L9.3456 0.972141C9.4182 0.835343 9.39497 0.666528 9.2817 0.558836C8.89835 0.183368 8.49177 0 8.03872 0C7.62343 0 7.24298 0.157173 6.91191 0.296881L6.88475 0.308078C6.63346 0.41172 6.39672 0.509355 6.20329 0.509355C6.1423 0.509355 6.09003 0.500624 6.03775 0.480249C5.34656 0.227027 4.8151 0.0698545 4.30106 0.0698545C3.65053 0.0698545 3.09584 0.331809 2.55276 0.890644C2.4395 1.00707 2.42207 1.19044 2.5121 1.32723L4.10939 3.74595C3.71442 4.03992 2.95934 4.65696 2.20136 5.56798C1.56534 6.33347 1.05712 7.15135 0.691191 7.99543C0.232333 9.0578 0 10.1667 0 11.2902C0 12.7834 1.21394 14 2.70378 14H9.29622C10.7861 14 12 12.7834 12 11.2902C12 10.1667 11.7677 9.0578 11.3088 7.99543ZM3.25557 1.1817C3.59245 0.890644 3.91481 0.762578 4.30106 0.762578C4.71346 0.762578 5.17812 0.902287 5.79671 1.13222C5.92449 1.17879 6.06099 1.20208 6.20039 1.20208C6.54017 1.20208 6.86544 1.06819 7.17619 0.937214L7.17815 0.93639C7.47656 0.811535 7.76053 0.692724 8.03582 0.692724C8.16941 0.692724 8.35818 0.716008 8.59632 0.884823L7.20232 3.48108H4.77444L3.25557 1.1817ZM2.70378 13.3015H9.29622C10.4027 13.3015 11.303 12.3992 11.2972 11.2902C11.2972 9.42162 10.6176 7.65489 9.27299 6.03077C8.42498 5.00333 7.56534 4.36299 7.30106 4.17963H4.69313C4.43175 4.3659 3.56922 5.00333 2.7212 6.03077C1.37948 7.65489 0.696999 9.42453 0.696999 11.2902C0.696999 12.3992 1.59729 13.3015 2.70378 13.3015Z" fill="#717171"/>
</svg>
