<svg width="19" height="17" viewBox="0 0 19 17" fill="none" xmlns="http://www.w3.org/2000/svg">
<path fill-rule="evenodd" clip-rule="evenodd" d="M18.6698 3.8434C18.6698 3.2946 18.2234 2.8482 17.6746 2.8482H12.489V1.5098C12.489 0.751999 11.8724 0.135399 11.1146 0.135399H7.68541C6.92761 0.135399 6.31101 0.751999 6.31101 1.5098V2.8482H1.12581C0.576809 2.8482 0.130209 3.2944 0.130209 3.8424L0.120209 8.5764C0.120009 8.73 0.207609 8.8702 0.345609 8.9372C0.556809 9.0396 0.774209 9.1342 0.992609 9.228V15.6696C0.992609 16.2182 1.43901 16.6648 1.98781 16.6648H16.8118C17.3606 16.6648 17.807 16.2184 17.807 15.6696V9.1316C18.0308 9.0282 18.2512 8.9212 18.466 8.808C18.5976 8.7386 18.6798 8.602 18.6794 8.4534L18.6698 3.8434ZM7.11101 1.5098C7.11101 1.193 7.36881 0.935399 7.68541 0.935399H11.1146C11.426 0.935399 11.689 1.1984 11.689 1.5098V2.8482H7.11101V1.5098ZM16.812 15.8648C16.916 15.8648 17.0072 15.7736 17.0072 15.6696H17.007V9.4722C15.2938 10.1442 13.348 10.5494 11.199 10.68V11.241C11.199 11.6432 10.8718 11.9708 10.4696 11.9708H8.33061C7.92821 11.9708 7.60081 11.6434 7.60081 11.241V10.686C5.47941 10.5684 3.53401 10.1848 1.79281 9.5454V15.6696C1.79281 15.7754 1.88221 15.8648 1.98801 15.8648H16.812ZM8.40081 11.1708V9.8436H10.3992V11.1708H8.40081ZM11.1992 9.774V9.8756C13.7508 9.7152 15.9974 9.1582 17.8792 8.2102L17.87 3.844C17.87 3.7374 17.7806 3.6482 17.6748 3.6482H1.12601C1.02001 3.6482 0.930409 3.7376 0.930409 3.8434L0.921009 8.3244C2.84901 9.2184 5.09521 9.7406 7.60081 9.8842V9.774C7.60081 9.3714 7.92821 9.0438 8.33061 9.0438H10.4698C10.872 9.0438 11.1992 9.3712 11.1992 9.774Z" fill="#222222"/>
<path d="M18.6698 3.8434H18.5698V3.84361L18.6698 3.8434ZM12.489 2.8482H12.389V2.9482H12.489V2.8482ZM6.31101 2.8482V2.9482H6.41101V2.8482H6.31101ZM0.130209 3.8424L0.230209 3.84261V3.8424H0.130209ZM0.120209 8.5764L0.0202089 8.57619L0.0202088 8.57627L0.120209 8.5764ZM0.345609 8.9372L0.301934 9.02716L0.301982 9.02718L0.345609 8.9372ZM0.992609 9.228H1.09261V9.16211L1.03207 9.13612L0.992609 9.228ZM17.807 9.1316L17.7651 9.04082L17.707 9.06764V9.1316H17.807ZM18.466 8.808L18.5126 8.89647L18.5127 8.89645L18.466 8.808ZM18.6794 8.4534L18.5794 8.45361V8.45367L18.6794 8.4534ZM11.689 2.8482V2.9482H11.789V2.8482H11.689ZM7.11101 2.8482H7.01101V2.9482H7.11101V2.8482ZM17.0072 15.6696H17.1072V15.5696H17.0072V15.6696ZM17.007 15.6696H16.907V15.7696H17.007V15.6696ZM17.007 9.4722H17.107V9.32556L16.9705 9.3791L17.007 9.4722ZM11.199 10.68L11.1929 10.5802L11.099 10.5859V10.68H11.199ZM7.60081 10.686H7.70081V10.5914L7.60634 10.5862L7.60081 10.686ZM1.79281 9.5454L1.82728 9.45153L1.69281 9.40215V9.5454H1.79281ZM8.40081 9.8436V9.7436H8.30081V9.8436H8.40081ZM8.40081 11.1708H8.30081V11.2708H8.40081V11.1708ZM10.3992 9.8436H10.4992V9.7436H10.3992V9.8436ZM10.3992 11.1708V11.2708H10.4992V11.1708H10.3992ZM11.1992 9.8756H11.0992V9.98208L11.2055 9.9754L11.1992 9.8756ZM17.8792 8.2102L17.9242 8.29951L17.9793 8.27173L17.9792 8.20999L17.8792 8.2102ZM17.87 3.844H17.77V3.84421L17.87 3.844ZM0.930409 3.8434L1.03041 3.84361V3.8434H0.930409ZM0.921009 8.3244L0.82101 8.32419L0.820875 8.3882L0.878943 8.41512L0.921009 8.3244ZM7.60081 9.8842L7.59509 9.98404L7.70081 9.99009V9.8842H7.60081ZM17.6746 2.9482C18.1682 2.9482 18.5698 3.34983 18.5698 3.8434H18.7698C18.7698 3.23937 18.2786 2.7482 17.6746 2.7482V2.9482ZM12.489 2.9482H17.6746V2.7482H12.489V2.9482ZM12.389 1.5098V2.8482H12.589V1.5098H12.389ZM11.1146 0.235399C11.8172 0.235399 12.389 0.807227 12.389 1.5098H12.589C12.589 0.69677 11.9276 0.0353989 11.1146 0.0353989V0.235399ZM7.68541 0.235399H11.1146V0.0353989H7.68541V0.235399ZM6.41101 1.5098C6.41101 0.807227 6.98284 0.235399 7.68541 0.235399V0.0353989C6.87238 0.0353989 6.21101 0.69677 6.21101 1.5098H6.41101ZM6.41101 2.8482V1.5098H6.21101V2.8482H6.41101ZM1.12581 2.9482H6.31101V2.7482H1.12581V2.9482ZM0.230209 3.8424C0.230209 3.34975 0.63192 2.9482 1.12581 2.9482V2.7482C0.521699 2.7482 0.0302094 3.23905 0.0302094 3.8424H0.230209ZM0.220209 8.57661L0.230209 3.84261L0.0302096 3.84219L0.020209 8.57619L0.220209 8.57661ZM0.389285 8.84724C0.285826 8.79701 0.220059 8.69184 0.220209 8.57653L0.0202088 8.57627C0.0199598 8.76816 0.129393 8.94339 0.301934 9.02716L0.389285 8.84724ZM1.03207 9.13612C0.813729 9.04234 0.598184 8.94853 0.389237 8.84722L0.301982 9.02718C0.515434 9.13067 0.73469 9.22606 0.953147 9.31988L1.03207 9.13612ZM1.09261 15.6696V9.228H0.892609V15.6696H1.09261ZM1.98781 16.5648C1.49425 16.5648 1.09261 16.163 1.09261 15.6696H0.892609C0.892609 16.2734 1.38377 16.7648 1.98781 16.7648V16.5648ZM16.8118 16.5648H1.98781V16.7648H16.8118V16.5648ZM17.707 15.6696C17.707 16.1632 17.3054 16.5648 16.8118 16.5648V16.7648C17.4158 16.7648 17.907 16.2736 17.907 15.6696H17.707ZM17.707 9.1316V15.6696H17.907V9.1316H17.707ZM18.4194 8.71953C18.2065 8.83171 17.9878 8.93793 17.7651 9.04082L17.849 9.22238C18.0739 9.11846 18.2959 9.01068 18.5126 8.89647L18.4194 8.71953ZM18.5794 8.45367C18.5797 8.56502 18.5181 8.66747 18.4194 8.71954L18.5127 8.89645C18.6771 8.80973 18.7799 8.63898 18.7794 8.45313L18.5794 8.45367ZM18.5698 3.84361L18.5794 8.45361L18.7794 8.45319L18.7698 3.84319L18.5698 3.84361ZM7.68541 0.835399C7.3136 0.835399 7.01101 1.13775 7.01101 1.5098H7.21101C7.21101 1.24825 7.42402 1.0354 7.68541 1.0354V0.835399ZM11.1146 0.835399H7.68541V1.0354H11.1146V0.835399ZM11.789 1.5098C11.789 1.14317 11.4812 0.835399 11.1146 0.835399V1.0354C11.3708 1.0354 11.589 1.25363 11.589 1.5098H11.789ZM11.789 2.8482V1.5098H11.589V2.8482H11.789ZM7.11101 2.9482H11.689V2.7482H7.11101V2.9482ZM7.01101 1.5098V2.8482H7.21101V1.5098H7.01101ZM16.9072 15.6696C16.9072 15.7184 16.8608 15.7648 16.812 15.7648V15.9648C16.9712 15.9648 17.1072 15.8288 17.1072 15.6696H16.9072ZM17.007 15.7696H17.0072V15.5696H17.007V15.7696ZM16.907 9.4722V15.6696H17.107V9.4722H16.907ZM11.2051 10.7798C13.3628 10.6487 15.3191 10.2417 17.0435 9.56529L16.9705 9.3791C15.2685 10.0467 13.3332 10.4501 11.1929 10.5802L11.2051 10.7798ZM11.299 11.241V10.68H11.099V11.241H11.299ZM10.4696 12.0708C10.9271 12.0708 11.299 11.6984 11.299 11.241H11.099C11.099 11.588 10.8165 11.8708 10.4696 11.8708V12.0708ZM8.33061 12.0708H10.4696V11.8708H8.33061V12.0708ZM7.50081 11.241C7.50081 11.6986 7.87298 12.0708 8.33061 12.0708V11.8708C7.98344 11.8708 7.70081 11.5882 7.70081 11.241H7.50081ZM7.50081 10.686V11.241H7.70081V10.686H7.50081ZM1.75834 9.63927C3.51 10.2825 5.46531 10.6678 7.59527 10.7858L7.60634 10.5862C5.49351 10.469 3.55801 10.0871 1.82728 9.45153L1.75834 9.63927ZM1.89281 15.6696V9.5454H1.69281V15.6696H1.89281ZM1.98801 15.7648C1.93744 15.7648 1.89281 15.7202 1.89281 15.6696H1.69281C1.69281 15.8306 1.82698 15.9648 1.98801 15.9648V15.7648ZM16.812 15.7648H1.98801V15.9648H16.812V15.7648ZM8.30081 9.8436V11.1708H8.50081V9.8436H8.30081ZM10.3992 9.7436H8.40081V9.9436H10.3992V9.7436ZM10.4992 11.1708V9.8436H10.2992V11.1708H10.4992ZM8.40081 11.2708H10.3992V11.0708H8.40081V11.2708ZM11.2992 9.8756V9.774H11.0992V9.8756H11.2992ZM17.8342 8.12089C15.9669 9.06161 13.734 9.61606 11.1929 9.7758L11.2055 9.9754C13.7676 9.81434 16.0279 9.25479 17.9242 8.29951L17.8342 8.12089ZM17.77 3.84421L17.7792 8.21041L17.9792 8.20999L17.97 3.84379L17.77 3.84421ZM17.6748 3.7482C17.7252 3.7482 17.77 3.79249 17.77 3.844H17.97C17.97 3.6823 17.836 3.5482 17.6748 3.5482V3.7482ZM1.12601 3.7482H17.6748V3.5482H1.12601V3.7482ZM1.03041 3.8434C1.03041 3.79303 1.07504 3.7482 1.12601 3.7482V3.5482C0.96498 3.5482 0.830409 3.68217 0.830409 3.8434H1.03041ZM1.02101 8.32461L1.03041 3.84361L0.83041 3.84319L0.82101 8.32419L1.02101 8.32461ZM7.60653 9.78436C5.11117 9.64135 2.87769 9.12147 0.963076 8.23368L0.878943 8.41512C2.82033 9.31533 5.07925 9.83985 7.59509 9.98404L7.60653 9.78436ZM7.50081 9.774V9.8842H7.70081V9.774H7.50081ZM8.33061 8.9438C7.87293 8.9438 7.50081 9.31622 7.50081 9.774H7.70081C7.70081 9.42657 7.98349 9.1438 8.33061 9.1438V8.9438ZM10.4698 8.9438H8.33061V9.1438H10.4698V8.9438ZM11.2992 9.774C11.2992 9.31606 10.9273 8.9438 10.4698 8.9438V9.1438C10.8167 9.1438 11.0992 9.42634 11.0992 9.774H11.2992Z" fill="#717171"/>
</svg>
