<svg width="803" height="209" viewBox="0 0 803 209" fill="none" xmlns="http://www.w3.org/2000/svg">
<g clip-path="url(#clip0)">
<g filter="url(#filter0_d)">
<rect y="23" width="802" height="185" rx="4" fill="url(#paint0_linear)"/>
</g>
<mask id="mask0" mask-type="alpha" maskUnits="userSpaceOnUse" x="0" y="23" width="802" height="185">
<rect y="23" width="802" height="185" rx="4" fill="white"/>
</mask>
<g mask="url(#mask0)">
<path fill-rule="evenodd" clip-rule="evenodd" d="M726.5 270C791.393 270 844 217.393 844 152.5C844 87.6065 791.393 35 726.5 35C661.607 35 609 87.6065 609 152.5C609 217.393 661.607 270 726.5 270Z" fill="#20402A" fill-opacity="0.1"/>
</g>
<path fill-rule="evenodd" clip-rule="evenodd" d="M569.656 93.019L574.493 91.2981C575.047 91.13 575.543 91.6955 575.336 92.2549L573.232 97.086C573.149 97.3077 573.176 97.5583 573.306 97.7539L575.879 101.696C576.202 102.192 575.839 102.859 575.265 102.825L570.696 102.555C570.467 102.541 570.247 102.643 570.106 102.833L567.023 107.422C566.587 108.309 566.006 108.052 565.859 107.473L564.917 101.731C564.858 101.5 564.695 101.315 564.479 101.234L559.348 99.6079C558.807 99.4046 558.945 98.9247 559.43 98.6007L563.883 95.7548C564.076 95.6264 564.194 95.4064 564.202 95.1679L563.927 89.7025C563.945 89.1018 564.616 88.7854 565.061 89.1645L569.022 92.8845C569.2 93.0343 569.436 93.0848 569.656 93.019Z" fill="#76E699"/>
<path fill-rule="evenodd" clip-rule="evenodd" d="M534.999 88L526 98.8917L537.723 106L544 95.6266L534.999 88Z" fill="#F2699F"/>
<path fill-rule="evenodd" clip-rule="evenodd" d="M608.499 47L600 57.8917L611.072 65L617 54.6266L608.499 47Z" fill="#F2699F"/>
<path fill-rule="evenodd" clip-rule="evenodd" d="M567.499 57L559 67.8908L570.072 75L576 64.6274L567.499 57Z" fill="#FFD100"/>
<path fill-rule="evenodd" clip-rule="evenodd" d="M562.533 157L556 166.847L562.533 173L575 169.924L562.533 157Z" fill="#76E699"/>
<path fill-rule="evenodd" clip-rule="evenodd" d="M508.532 161L502 170.847L508.532 177L521 173.923L508.532 161Z" fill="#FFD100"/>
<path fill-rule="evenodd" clip-rule="evenodd" d="M557.673 133.702L562.278 131.197C562.81 130.938 563.433 131.358 563.33 131.907L562.148 136.718C562.106 136.935 562.185 137.159 562.356 137.314L565.78 140.409C566.211 140.797 565.973 141.475 565.378 141.555L560.647 142.193C560.411 142.224 560.205 142.362 560.101 142.561L557.864 147.343C557.596 148.233 556.95 148.112 556.684 147.611L554.568 142.561C554.462 142.362 554.258 142.224 554.022 142.193L548.444 141.704C547.849 141.623 547.895 141.158 548.325 140.77L552.313 137.314C552.483 137.159 552.561 136.935 552.52 136.718L551.144 131.787C551.043 131.238 551.666 130.82 552.196 131.078L556.996 133.702C557.208 133.805 557.461 133.805 557.673 133.702Z" fill="#FFD100"/>
<path fill-rule="evenodd" clip-rule="evenodd" d="M531.135 49.8614L535.485 47.2089C535.987 46.9349 536.575 47.379 536.478 47.96L535.362 53.0543C535.323 53.2846 535.397 53.521 535.559 53.685L538.792 56.9623C539.199 57.3733 538.975 58.0913 538.413 58.1756L533.944 58.8515C533.721 58.8847 533.527 59.0307 533.429 59.2414L531.316 64.3041C531.063 65.2464 530.453 65.1185 530.201 64.5886L528.203 59.2414C528.103 59.0307 527.91 58.8847 527.687 58.8515L522.42 58.3337C521.858 58.2479 521.901 57.7556 522.307 57.3446L526.073 53.685C526.234 53.521 526.308 53.2846 526.268 53.0543L524.97 47.8336C524.874 47.2525 525.462 46.8099 525.963 47.0824L530.497 49.8614C530.696 49.9697 530.935 49.9697 531.135 49.8614Z" fill="#FFD100"/>
<path fill-rule="evenodd" clip-rule="evenodd" d="M514.035 130.708C517.572 127.563 520.875 128.497 523.851 131.949C525.287 133.611 528.906 139.093 525.519 140.491C523.652 141.262 521.139 139.86 520.268 138.269C519.301 136.501 519.513 134.213 520.049 132.35C521.536 127.19 525.308 124.942 530.363 124.088C531.3 123.929 531.12 122.646 530.363 122.391C521.003 119.238 511.772 136.031 519.975 141.731C522.732 143.647 528.008 143.674 529.016 139.849C530.006 136.085 526.9 131.616 524.225 129.264C520.885 126.324 515.404 125.224 513.071 129.975C512.769 130.588 513.501 131.182 514.035 130.708Z" fill="#E56464"/>
<path fill-rule="evenodd" clip-rule="evenodd" d="M585.719 106.765C585.619 102.82 592.381 102.963 594.531 104.816C596.031 106.106 596.51 108.399 596.424 110.304C596.329 112.403 595.445 114.277 594.333 111.421C592.396 106.447 593.242 99.2001 599.947 99.4139C602.101 99.4827 604.238 100.502 605.471 102.315C606.453 103.76 607.943 109.329 604.505 107.233C599.678 104.295 604.798 94.2785 608.18 92.2504C608.834 91.8565 608.402 90.8388 607.666 91.0218C599.185 93.129 596.958 112.502 607.975 109.691C608.35 109.594 608.767 109.232 608.831 108.827C609.592 103.961 607.807 99.1079 602.859 97.4502C598.691 96.0547 593.801 97.6025 591.791 101.682C590.581 104.141 590.643 107.015 591.209 109.636C591.64 111.628 592.703 115.904 595.376 115.997C600.881 116.189 598.661 105.485 596.307 103.267C594.034 101.121 590.178 100.865 587.343 101.877C585.184 102.649 583.018 104.735 584.474 107.103C584.813 107.654 585.737 107.452 585.719 106.765Z" fill="#F2699F"/>
<path d="M723.5 68L723 79C725.825 82.17 730.385 83.61 736 84C742.23 82.855 747.28 80.89 751 78L750 61.5L723.5 68Z" fill="#FFA382"/>
<path d="M723.5 68V71L733.5 68H723.5Z" fill="#FE7649"/>
<path d="M718.5 23.5V27.175C718.499 27.6981 718.206 28.1768 717.74 28.4149C717.274 28.653 716.715 28.6106 716.29 28.305C713.74 26.5 711 21.435 709.875 16.03C708.46 9.03 714.375 2.635 721.425 3.64C723.621 3.96682 725.742 4.67946 727.69 5.745C728.023 5.92577 728.415 5.96342 728.776 5.84932C729.137 5.73522 729.436 5.47917 729.605 5.14C733.425 -2.65 739.21 -0.140001 745.845 6.805C746.241 7.21502 746.849 7.34006 747.375 7.12C755.59 3.695 758.5 6.24 757.725 13C757.682 13.3749 757.793 13.7512 758.034 14.0419C758.275 14.3326 758.624 14.5125 759 14.54C767.185 15.14 765.215 21.835 760.17 30.375C759.81 30.9738 759.064 31.2167 758.42 30.945C755.635 29.84 753.63 31.66 751.875 34.395C751.636 34.7651 751.584 35.226 751.735 35.64C756.075 47.535 753.025 62.745 751.235 64.75C749.235 66.98 739.915 72.295 722.46 68.3C722.311 68.2714 722.169 68.2154 722.04 68.135C718.34 65.915 717.19 59.81 717.485 51.5" fill="#001047"/>
<path d="M751 33.5C751.546 32.0509 752.642 30.8758 754.05 30.23C755.556 29.5134 757.345 29.7696 758.59 30.88C759.969 32.0438 760.835 33.7033 761 35.5C761.295 38.14 759.615 39.855 757.125 41.185C756.69 41.421 756.216 41.5736 755.725 41.635C754.374 41.8638 752.994 41.4433 752 40.5" fill="#FFA385"/>
<path d="M741.5 28.45C744.293 28.5006 746.699 30.4334 747.35 33.15C747.763 35.0732 747.981 37.0331 748 39C748.23 45.605 748.085 51.82 746.63 56.655C745.715 59.6843 742.648 61.5222 739.545 60.9C734.625 59.955 730 60.02 725.795 61.52C723.053 62.4555 720.03 61.3519 718.535 58.87C718.47 58.765 718.405 58.66 718.345 58.55C717.786 57.5907 717.504 56.4951 717.53 55.385L717.98 29.18C717.985 28.8675 718.115 28.5699 718.34 28.3532C718.565 28.1364 718.868 28.0183 719.18 28.025L741.5 28.45Z" fill="#FF9C78"/>
<path d="M721 31.5C722.645 30.21 724.18 29.89 725.5 31.5" stroke="#A9552B" stroke-width="0.5"/>
<path d="M735.5 32C737.215 31.195 738.805 30.85 740 32" stroke="#A9552B" stroke-width="0.5"/>
<path d="M724 45C724.552 45 725 44.2165 725 43.25C725 42.2835 724.552 41.5 724 41.5C723.448 41.5 723 42.2835 723 43.25C723 44.2165 723.448 45 724 45Z" fill="#000F47"/>
<path d="M737.5 45C738.052 45 738.5 44.2165 738.5 43.25C738.5 42.2835 738.052 41.5 737.5 41.5C736.948 41.5 736.5 42.2835 736.5 43.25C736.5 44.2165 736.948 45 737.5 45Z" fill="#000F47"/>
<path d="M731.5 45C729.672 46.9397 728.455 49.3739 728 52C729.405 53.11 731.135 53.035 733 52.5" stroke="#A9552B" stroke-width="0.5"/>
<path d="M734 55.5C735.5 55.5 739.5 55 740.5 53" stroke="#000F47" stroke-width="0.5" stroke-linecap="round" stroke-linejoin="round"/>
<path fill-rule="evenodd" clip-rule="evenodd" d="M722.625 47.25C726.422 47.25 729.5 44.172 729.5 40.375C729.5 36.578 726.422 33.5 722.625 33.5C718.828 33.5 715.75 36.578 715.75 40.375C715.75 44.172 718.828 47.25 722.625 47.25Z" stroke="#000F47" stroke-width="0.5" stroke-linecap="round" stroke-linejoin="round"/>
<path fill-rule="evenodd" clip-rule="evenodd" d="M738.595 47.25C742.392 47.25 745.47 44.172 745.47 40.375C745.47 36.578 742.392 33.5 738.595 33.5C734.798 33.5 731.72 36.578 731.72 40.375C731.72 44.172 734.798 47.25 738.595 47.25Z" stroke="#000F47" stroke-width="0.5" stroke-linecap="round" stroke-linejoin="round"/>
<path d="M729.75 40.25H731.75" stroke="#000F47" stroke-width="0.5" stroke-linecap="round" stroke-linejoin="round"/>
<path d="M745.25 40.25H748.06" stroke="#000F47" stroke-width="0.5" stroke-linejoin="round"/>
<path d="M754.935 31.29C756.79 30.69 758.09 31.29 758.75 33.25" stroke="#A9552B" stroke-width="0.5"/>
<path d="M802.6 136.73C802.69 140.46 795.1 143.51 791.375 143.32C789.035 143.206 786.718 142.806 784.475 142.13C782.392 141.52 780.141 142.003 778.493 143.416C776.844 144.828 776.021 146.978 776.305 149.13L782.83 200.245C783.063 202.07 782.504 203.908 781.294 205.294C780.085 206.681 778.34 207.483 776.5 207.5L689.25 207.93C687.447 207.947 685.72 207.206 684.489 205.889C683.258 204.571 682.636 202.798 682.775 201L688.5 124.585C688.65 122.614 687.885 120.683 686.425 119.35L673.77 107.78C672.151 106.306 671.396 104.107 671.77 101.95C673.21 93.83 676.245 86.32 684.455 80.79C685.253 80.2511 686.162 79.899 687.115 79.76C698.55 78.07 709.715 76.685 720.475 75.76L721.235 75.695C731.425 84.8 742.405 82.695 753.805 74.505H754.475C762.671 74.6662 770.845 75.4098 778.935 76.73C779.845 76.8843 780.71 77.2358 781.47 77.76C788.22 82.375 797.795 89.905 801.4 99.99C801.629 100.633 801.752 101.308 801.765 101.99L802.6 136.73Z" fill="#76E699"/>
<path d="M754.5 74V74.5L751.5 189L718.5 187.5L720.5 75.75V75C720.75 75.235 721 75.465 721.245 75.685C731.435 84.79 742.415 82.685 753.815 74.495L754.5 74Z" fill="#F6FCFF"/>
<path d="M720.5 75C727.815 81.6 737.46 84.5 755 75" stroke="#1D3332" stroke-width="2.5"/>
<path d="M736 96.5C737.105 96.5 738 95.6046 738 94.5C738 93.3954 737.105 92.5 736 92.5C734.895 92.5 734 93.3954 734 94.5C734 95.6046 734.895 96.5 736 96.5Z" fill="#1D3332"/>
<path d="M777.01 152.185L777.79 160L763.46 143.845L777.01 152.185Z" fill="#428055"/>
<path d="M736 104C737.105 104 738 103.105 738 102C738 100.895 737.105 100 736 100C734.895 100 734 100.895 734 102C734 103.105 734.895 104 736 104Z" fill="#1D3332"/>
<path d="M802.5 132C781.25 125.93 751.275 116.25 746.5 117C743.17 112.03 739.22 110.53 735 110.5C733.315 112.585 734.355 113.94 736.5 115C731.575 116.235 725.72 127.07 725.37 128.425C724.53 131.425 724.93 134.425 726.5 137.5C727.86 134.12 730 131.705 733.5 131C736.895 134.285 740.825 134.6 745 133.5L747 130.5C764.675 145.945 783.145 157.89 802.5 166" fill="#FFA483"/>
<path d="M741.5 115C732.955 115.225 728.345 120.04 726 127.5" stroke="#000111" stroke-width="0.5"/>
<path d="M733.5 131.5C732.5 127.83 732.595 124.71 735.5 123" stroke="#000111" stroke-width="0.5"/>
<path opacity="0.3" d="M718 208H726.5L720 76L718 208Z" fill="#1F2E3D"/>
<path d="M737.25 132.75C735.95 130.025 736.075 127.5 738.25 125.25" stroke="#000111" stroke-width="0.5"/>
<path d="M746.25 131.75C746.25 131.75 744.25 130.75 743.25 130.75C742.522 130.557 741.841 130.217 741.25 129.75" stroke="#000111" stroke-width="0.5"/>
<path d="M741.25 131.75L743.25 130.75" stroke="#000111" stroke-width="0.5"/>
<path d="M793.095 129.145L765.35 120.99" stroke="#000111" stroke-width="0.5"/>
<path opacity="0.1" d="M673.5 77.5H726L739.5 110.5L687 113" fill="#022AB7"/>
<path opacity="0.1" d="M632 94.5H709.5L730.5 145L649 147" fill="#022AB7"/>
<path d="M758 151V157.5H725.5V151" fill="#8492AC"/>
<path d="M725.5 151V157.5H640.5V151" fill="#E1E5ED"/>
<path d="M627 100.5L705.5 101L725.5 151H645" fill="#F4F3F2"/>
<path d="M658.11 100.65L637 128.5L627 100.5" fill="#BFCAD4"/>
<path d="M641.92 159.235C641.73 159.19 641.55 159.135 641.375 159.08C638.921 158.224 637.433 155.731 637.845 153.165L638 132L643.205 141.7C643.281 142.035 643.491 142.324 643.786 142.5C644.08 142.677 644.434 142.725 644.765 142.635C652.56 140.5 659.045 140.575 663 145C662.675 146.18 661.825 146.835 660.5 147C661.84 147.745 662.565 149 663 150.5C662.055 151.86 660.64 152.185 659 152C660.46 152.765 661.725 153.705 662 155.5C661.795 156.34 660.705 156.705 659.5 157H692.35C692.697 157.001 693.017 157.187 693.19 157.488C693.362 157.79 693.36 158.16 693.185 158.46C688.495 166.155 679.73 169.96 668.845 171.79C667.955 171.943 667.045 171.943 666.155 171.79C657.8 170.315 650.31 167.265 644.655 160.88C643.932 160.066 642.978 159.492 641.92 159.235Z" fill="#FFA583"/>
<path d="M652.5 151.5C652.5 151.5 657.945 150.96 659.72 152.5" stroke="#000111" stroke-width="0.5"/>
<path d="M653.5 146C653.5 146 658 145.5 660.5 147" stroke="#000111" stroke-width="0.5"/>
<path d="M637.5 155.5C640.18 159.16 643.815 160.245 648.5 158.5" stroke="#000111" stroke-width="0.5"/>
<path d="M663.09 157H693.185C693.429 157.008 693.649 157.152 693.754 157.373C693.859 157.594 693.833 157.855 693.685 158.05L691.005 161.595C690.886 161.753 690.703 161.85 690.505 161.86C681.03 161.99 671.87 160.36 662.945 158.295C662.617 158.224 662.396 157.916 662.433 157.582C662.471 157.248 662.754 156.997 663.09 157Z" fill="#E8957C"/>
<path d="M721.75 156C722.44 156 723 155.44 723 154.75C723 154.06 722.44 153.5 721.75 153.5C721.06 153.5 720.5 154.06 720.5 154.75C720.5 155.44 721.06 156 721.75 156Z" fill="#022AB7"/>
<rect x="732.5" y="153.5" width="5" height="2.5" rx="1.01" fill="#022AB7"/>
<rect x="741" y="153.5" width="5" height="2.5" rx="1.01" fill="#022AB7"/>
<path d="M718 188L718.515 207.5L750.455 209L752 188.5" fill="#1F2E3D"/>
</g>
<defs>
<filter id="filter0_d" x="-28" y="4" width="858" height="241" filterUnits="userSpaceOnUse" color-interpolation-filters="sRGB">
<feFlood flood-opacity="0" result="BackgroundImageFix"/>
<feColorMatrix in="SourceAlpha" type="matrix" values="0 0 0 0 0 0 0 0 0 0 0 0 0 0 0 0 0 0 127 0"/>
<feOffset dy="9"/>
<feGaussianBlur stdDeviation="14"/>
<feColorMatrix type="matrix" values="0 0 0 0 0.0912573 0 0 0 0 0.0900172 0 0 0 0 0.267352 0 0 0 0.04 0"/>
<feBlend mode="normal" in2="BackgroundImageFix" result="effect1_dropShadow"/>
<feBlend mode="normal" in="SourceGraphic" in2="effect1_dropShadow" result="shape"/>
</filter>
<linearGradient id="paint0_linear" x1="-109.627" y1="-22.8886" x2="-110.645" y2="229.895" gradientUnits="userSpaceOnUse">
<stop stop-color="#8E93FF"/>
<stop offset="1" stop-color="#6967FF"/>
</linearGradient>
<clipPath id="clip0">
<rect width="803" height="209" fill="white"/>
</clipPath>
</defs>
</svg>
