<svg width="16" height="17" viewBox="0 0 16 17" fill="none" xmlns="http://www.w3.org/2000/svg">
<path fill-rule="evenodd" clip-rule="evenodd" d="M13.4682 6.9197H14.8813C15.3114 6.9197 15.68 7.28834 15.68 7.71842V9.56162C15.68 9.9917 15.3114 10.3603 14.8813 10.3603H13.4682C13.2838 10.3603 13.0381 10.5447 12.9766 10.729C12.9152 10.9747 12.9152 11.1591 13.0995 11.3434L14.144 12.3879C14.3283 12.5107 14.3898 12.7565 14.3898 12.9408C14.3898 13.1251 14.2669 13.3709 14.144 13.4938L12.8538 14.784C12.5466 15.0912 12.055 15.0912 11.7478 14.784L10.7034 13.7395C10.519 13.5552 10.2733 13.5552 10.089 13.6167C9.84321 13.6781 9.72033 13.8624 9.72033 14.1082V15.5213C9.72033 15.9514 9.35169 16.32 8.92161 16.32H7.07841C6.64833 16.32 6.27969 15.9514 6.27969 15.5213V14.1082C6.27969 13.9239 6.09537 13.6781 5.91105 13.6167C5.66529 13.5552 5.48097 13.5552 5.29665 13.7395L4.25217 14.784C3.94497 15.0912 3.45345 15.0912 3.14625 14.784L1.85601 13.4938C1.67169 13.3709 1.61025 13.1251 1.61025 12.9408C1.61025 12.7565 1.73313 12.5107 1.85601 12.3879L2.90049 11.3434C3.08481 11.1591 3.08481 10.9133 3.02337 10.729C2.96193 10.4832 2.77761 10.3603 2.53185 10.3603H1.11873C0.688647 10.3603 0.320007 9.9917 0.320007 9.56162V7.71842C0.320007 7.28834 0.688647 6.9197 1.11873 6.9197H2.53185C2.71617 6.9197 2.96193 6.73538 3.02337 6.55106C3.08481 6.3053 3.08481 6.12098 2.90049 5.93666L1.85601 4.89218C1.67169 4.7693 1.61025 4.52354 1.61025 4.33922C1.61025 4.1549 1.73313 3.90914 1.85601 3.78626L3.14625 2.49602C3.45345 2.18882 3.94497 2.18882 4.25217 2.49602L5.29665 3.5405C5.48097 3.72482 5.72673 3.72482 5.91105 3.66338C6.15681 3.60194 6.27969 3.41762 6.27969 3.17186V1.75874C6.27969 1.32866 6.64833 0.960022 7.07841 0.960022H8.92161C9.35169 0.960022 9.72033 1.32866 9.72033 1.75874V3.17186C9.72033 3.35618 9.90465 3.60194 10.089 3.66338C10.3347 3.72482 10.519 3.72482 10.7034 3.5405L11.7478 2.49602C12.055 2.18882 12.5466 2.18882 12.8538 2.49602L14.144 3.78626C14.3283 3.90914 14.3898 4.1549 14.3898 4.33922C14.3898 4.52354 14.2669 4.7693 14.144 4.89218L13.0995 5.93666C12.9152 6.12098 12.9152 6.36674 12.9766 6.55106C13.0381 6.79682 13.2224 6.9197 13.4682 6.9197ZM14.8813 9.80738C15.0042 9.80738 15.127 9.6845 15.127 9.56162V7.71842C15.127 7.59554 15.0042 7.47266 14.8813 7.47266H13.4682C12.9766 7.47266 12.608 7.2269 12.4237 6.79682C12.2394 6.36674 12.3622 5.87522 12.6694 5.56802L13.7139 4.52354C13.7754 4.4621 13.7754 4.27778 13.7139 4.21634L12.4237 2.9261C12.3622 2.86466 12.1779 2.86466 12.1165 2.9261L11.072 3.97058C10.7648 4.27778 10.2733 4.40066 9.84321 4.21634C9.41313 4.03202 9.16737 3.66338 9.16737 3.17186V1.75874C9.16737 1.63586 9.04449 1.51298 8.92161 1.51298H7.07841C6.95553 1.51298 6.83265 1.63586 6.83265 1.75874V3.17186C6.83265 3.66338 6.58689 4.03202 6.15681 4.21634C5.72673 4.40066 5.23521 4.27778 4.92801 3.97058L3.88353 2.9261C3.82209 2.86466 3.63777 2.86466 3.57633 2.9261L2.28609 4.21634C2.22465 4.27778 2.22465 4.4621 2.28609 4.52354L3.33057 5.56802C3.63777 5.87522 3.76065 6.36674 3.57633 6.79682C3.39201 7.2269 3.02337 7.47266 2.53185 7.47266H1.11873C0.995847 7.47266 0.872967 7.59554 0.872967 7.71842V9.56162C0.872967 9.6845 0.995847 9.80738 1.11873 9.80738H2.53185C3.02337 9.80738 3.39201 10.0531 3.57633 10.4832C3.76065 10.9133 3.63777 11.4048 3.33057 11.712L2.28609 12.7565C2.22465 12.8179 2.22465 13.0023 2.28609 13.0637L3.57633 14.3539C3.63777 14.4154 3.82209 14.4154 3.88353 14.3539L4.92801 13.3095C5.17377 13.1251 5.41953 13.0023 5.72673 13.0023C5.84961 13.0023 6.03393 13.0023 6.15681 13.0637C6.58689 13.248 6.83265 13.6167 6.83265 14.1082V15.5213C6.83265 15.6442 6.95553 15.7671 7.07841 15.7671H8.92161C9.04449 15.7671 9.16737 15.6442 9.16737 15.5213V14.1082C9.16737 13.6167 9.41313 13.248 9.84321 13.0637C10.2733 12.8794 10.7648 13.0023 11.072 13.3095L12.1165 14.3539C12.1779 14.4154 12.3622 14.4154 12.4237 14.3539L13.7139 13.0637C13.7754 13.0023 13.7754 12.8179 13.7139 12.7565L12.6694 11.712C12.3622 11.4048 12.2394 10.9133 12.4237 10.4832C12.608 10.0531 12.9766 9.80738 13.4682 9.80738H14.8813Z" fill="#333539"/>
<path d="M12.9766 10.729L12.7034 10.6379L12.6999 10.6484L12.6972 10.6591L12.9766 10.729ZM14.144 12.3879L13.9404 12.5915L13.9605 12.6117L13.9843 12.6275L14.144 12.3879ZM10.089 13.6167L10.1588 13.8961L10.1695 13.8934L10.18 13.8899L10.089 13.6167ZM5.91105 13.6167L6.00212 13.3434L5.99163 13.3399L5.9809 13.3373L5.91105 13.6167ZM5.29665 13.7395L5.50029 13.9432H5.50029L5.29665 13.7395ZM4.25217 14.784L4.04852 14.5804H4.04852L4.25217 14.784ZM3.14625 14.784L3.34989 14.5804H3.34989L3.14625 14.784ZM1.85601 13.4938L2.05965 13.2901L2.03949 13.27L2.01576 13.2542L1.85601 13.4938ZM1.85601 12.3879L2.05965 12.5915L1.85601 12.3879ZM2.90049 11.3434L3.10413 11.547H3.10413L2.90049 11.3434ZM3.02337 10.729L2.74397 10.7988L2.74665 10.8096L2.75015 10.8201L3.02337 10.729ZM3.02337 6.55106L3.29659 6.64214L3.30009 6.63164L3.30277 6.62091L3.02337 6.55106ZM2.90049 5.93666L2.69684 6.14031L2.90049 5.93666ZM1.85601 4.89218L2.05965 4.68854L2.03949 4.66837L2.01576 4.65255L1.85601 4.89218ZM4.25217 2.49602L4.04852 2.69967L4.25217 2.49602ZM5.29665 3.5405L5.50029 3.33686L5.29665 3.5405ZM5.91105 3.66338L5.8412 3.38398L5.83047 3.38666L5.81997 3.39016L5.91105 3.66338ZM10.089 3.66338L9.99789 3.9366L10.0084 3.9401L10.0191 3.94278L10.089 3.66338ZM10.7034 3.5405L10.907 3.74415V3.74415L10.7034 3.5405ZM11.7478 2.49602L11.5442 2.29238V2.29238L11.7478 2.49602ZM12.8538 2.49602L13.0574 2.29238V2.29238L12.8538 2.49602ZM14.144 3.78626L13.9404 3.98991L13.9605 4.01007L13.9843 4.02589L14.144 3.78626ZM13.0995 5.93666L13.3032 6.14031V6.14031L13.0995 5.93666ZM12.9766 6.55106L13.256 6.48121L13.2534 6.47048L13.2499 6.45999L12.9766 6.55106ZM12.4237 6.79682L12.6884 6.68337L12.6884 6.68337L12.4237 6.79682ZM12.6694 5.56802L12.8731 5.77167V5.77167L12.6694 5.56802ZM13.7139 4.52354L13.9176 4.72719L13.9176 4.72719L13.7139 4.52354ZM13.7139 4.21634L13.9176 4.0127L13.9176 4.0127L13.7139 4.21634ZM12.4237 2.9261L12.6273 2.72246L12.6273 2.72245L12.4237 2.9261ZM12.1165 2.9261L12.3201 3.12975L12.3201 3.12975L12.1165 2.9261ZM11.072 3.97058L11.2757 4.17423V4.17423L11.072 3.97058ZM9.84321 4.21634L9.95666 3.95163L9.84321 4.21634ZM4.92801 3.97058L4.72436 4.17423L4.92801 3.97058ZM3.88353 2.9261L4.08717 2.72246L3.88353 2.9261ZM2.28609 4.52354L2.08244 4.72719L2.28609 4.52354ZM3.33057 5.56802L3.53421 5.36438L3.33057 5.56802ZM3.57633 10.4832L3.31161 10.5967L3.57633 10.4832ZM3.33057 11.712L3.53421 11.9157H3.53421L3.33057 11.712ZM2.28609 12.7565L2.48973 12.9601L2.48973 12.9601L2.28609 12.7565ZM2.28609 13.0637L2.08244 13.2673L2.08244 13.2673L2.28609 13.0637ZM3.57633 14.3539L3.37268 14.5576L3.37268 14.5576L3.57633 14.3539ZM3.88353 14.3539L4.08717 14.5576L4.08717 14.5576L3.88353 14.3539ZM4.92801 13.3095L4.75521 13.0791L4.73883 13.0913L4.72436 13.1058L4.92801 13.3095ZM6.15681 13.0637L6.02801 13.3213L6.03558 13.3251L6.04336 13.3284L6.15681 13.0637ZM9.84321 13.0637L9.95666 13.3284L9.95666 13.3284L9.84321 13.0637ZM12.4237 14.3539L12.6273 14.5576L12.6273 14.5576L12.4237 14.3539ZM13.7139 13.0637L13.9176 13.2673L13.9176 13.2673L13.7139 13.0637ZM12.4237 10.4832L12.6884 10.5967L12.6884 10.5967L12.4237 10.4832ZM14.8813 6.6317H13.4682V7.2077H14.8813V6.6317ZM15.968 7.71842C15.968 7.12928 15.4704 6.6317 14.8813 6.6317V7.2077C15.1523 7.2077 15.392 7.4474 15.392 7.71842H15.968ZM15.968 9.56162V7.71842H15.392V9.56162H15.968ZM14.8813 10.6483C15.4704 10.6483 15.968 10.1508 15.968 9.56162H15.392C15.392 9.83264 15.1523 10.0723 14.8813 10.0723V10.6483ZM13.4682 10.6483H14.8813V10.0723H13.4682V10.6483ZM13.2499 10.8201C13.2562 10.8011 13.2864 10.753 13.3491 10.7059C13.3775 10.6847 13.4058 10.6689 13.4301 10.6591C13.4555 10.6488 13.4683 10.6483 13.4682 10.6483V10.0723C13.2909 10.0723 13.1236 10.1551 13.0035 10.2451C12.882 10.3363 12.7585 10.4726 12.7034 10.6379L13.2499 10.8201ZM13.3032 11.1397C13.2488 11.0854 13.2355 11.0474 13.2306 11.0154C13.224 10.9728 13.2282 10.9101 13.256 10.7988L12.6972 10.6591C12.6636 10.7936 12.6371 10.9459 12.6613 11.103C12.6871 11.2707 12.7659 11.4171 12.8959 11.547L13.3032 11.1397ZM14.3477 12.1842L13.3032 11.1397L12.8959 11.547L13.9404 12.5915L14.3477 12.1842ZM14.6778 12.9408C14.6778 12.7204 14.6079 12.351 14.3038 12.1482L13.9843 12.6275C14.0136 12.6471 14.0437 12.6835 14.0672 12.7447C14.0908 12.8062 14.1018 12.8778 14.1018 12.9408H14.6778ZM14.3477 13.6974C14.4385 13.6065 14.5178 13.4839 14.5745 13.361C14.6304 13.2398 14.6778 13.0896 14.6778 12.9408H14.1018C14.1018 12.9764 14.0877 13.0412 14.0515 13.1197C14.016 13.1965 13.9724 13.2581 13.9404 13.2901L14.3477 13.6974ZM13.0574 14.9877L14.3477 13.6974L13.9404 13.2901L12.6501 14.5804L13.0574 14.9877ZM11.5442 14.9877C11.9639 15.4073 12.6377 15.4073 13.0574 14.9877L12.6501 14.5804C12.4554 14.7751 12.1462 14.7751 11.9515 14.5804L11.5442 14.9877ZM10.4997 13.9432L11.5442 14.9877L11.9515 14.5804L10.907 13.5359L10.4997 13.9432ZM10.18 13.8899C10.3021 13.8492 10.4191 13.8626 10.4997 13.9432L10.907 13.5359C10.619 13.2479 10.2444 13.2613 9.99789 13.3434L10.18 13.8899ZM10.0083 14.1082C10.0083 14.0329 10.0268 13.9882 10.0454 13.9627C10.0624 13.9393 10.0934 13.9124 10.1588 13.8961L10.0191 13.3373C9.83882 13.3823 9.68546 13.4783 9.57957 13.6239C9.47526 13.7673 9.43233 13.9377 9.43233 14.1082H10.0083ZM10.0083 15.5213V14.1082H9.43233V15.5213H10.0083ZM8.92161 16.608C9.51075 16.608 10.0083 16.1104 10.0083 15.5213H9.43233C9.43233 15.7923 9.19263 16.032 8.92161 16.032V16.608ZM7.07841 16.608H8.92161V16.032H7.07841V16.608ZM5.99169 15.5213C5.99169 16.1104 6.48927 16.608 7.07841 16.608V16.032C6.80738 16.032 6.56769 15.7923 6.56769 15.5213H5.99169ZM5.99169 14.1082V15.5213H6.56769V14.1082H5.99169ZM5.81997 13.8899C5.83894 13.8962 5.88703 13.9264 5.93409 13.9891C5.95536 14.0175 5.97115 14.0458 5.98096 14.0701C5.99121 14.0955 5.99169 14.1083 5.99169 14.1082H6.56769C6.56769 13.9309 6.48493 13.7636 6.39489 13.6435C6.30371 13.522 6.16747 13.3986 6.00212 13.3434L5.81997 13.8899ZM5.50029 13.9432C5.55467 13.8888 5.5926 13.8755 5.6246 13.8706C5.66718 13.864 5.72992 13.8682 5.8412 13.8961L5.9809 13.3373C5.84641 13.3036 5.69412 13.2771 5.53701 13.3013C5.36933 13.3271 5.22295 13.4059 5.093 13.5359L5.50029 13.9432ZM4.45581 14.9877L5.50029 13.9432L5.093 13.5359L4.04852 14.5804L4.45581 14.9877ZM2.9426 14.9877C3.36227 15.4073 4.03614 15.4073 4.45581 14.9877L4.04852 14.5804C3.85379 14.7751 3.54462 14.7751 3.34989 14.5804L2.9426 14.9877ZM1.65236 13.6974L2.9426 14.9877L3.34989 14.5804L2.05965 13.2901L1.65236 13.6974ZM1.32225 12.9408C1.32225 13.1612 1.39213 13.5307 1.69625 13.7334L2.01576 13.2542C1.98638 13.2346 1.95634 13.1981 1.93281 13.137C1.90917 13.0755 1.89825 13.0039 1.89825 12.9408H1.32225ZM1.65236 12.1842C1.56147 12.2751 1.48226 12.3978 1.42556 12.5206C1.3696 12.6418 1.32225 12.792 1.32225 12.9408H1.89825C1.89825 12.9053 1.91233 12.8404 1.94854 12.762C1.984 12.6852 2.02766 12.6235 2.05965 12.5915L1.65236 12.1842ZM2.69684 11.1397L1.65236 12.1842L2.05965 12.5915L3.10413 11.547L2.69684 11.1397ZM2.75015 10.8201C2.79084 10.9421 2.77745 11.0591 2.69684 11.1397L3.10413 11.547C3.39217 11.259 3.37877 10.8845 3.29659 10.6379L2.75015 10.8201ZM2.53185 10.6483C2.60711 10.6483 2.65181 10.6669 2.67733 10.6854C2.7007 10.7024 2.7276 10.7334 2.74397 10.7988L3.30277 10.6591C3.25769 10.4788 3.16171 10.3255 3.01612 10.2196C2.87269 10.1153 2.70235 10.0723 2.53185 10.0723V10.6483ZM1.11873 10.6483H2.53185V10.0723H1.11873V10.6483ZM0.0320073 9.56162C0.0320073 10.1508 0.529589 10.6483 1.11873 10.6483V10.0723C0.847705 10.0723 0.608007 9.83264 0.608007 9.56162H0.0320073ZM0.0320073 7.71842V9.56162H0.608007V7.71842H0.0320073ZM1.11873 6.6317C0.529589 6.6317 0.0320073 7.12928 0.0320073 7.71842H0.608007C0.608007 7.4474 0.847705 7.2077 1.11873 7.2077V6.6317ZM2.53185 6.6317H1.11873V7.2077H2.53185V6.6317ZM2.75015 6.45999C2.74382 6.47896 2.71364 6.52704 2.65089 6.5741C2.62253 6.59537 2.59422 6.61116 2.56992 6.62098C2.54454 6.63123 2.53175 6.6317 2.53185 6.6317V7.2077C2.70909 7.2077 2.87643 7.12494 2.99649 7.0349C3.11806 6.94372 3.24147 6.80749 3.29659 6.64214L2.75015 6.45999ZM2.69684 6.14031C2.75122 6.19468 2.76451 6.23261 2.76944 6.26461C2.77599 6.30719 2.77178 6.36994 2.74397 6.48121L3.30277 6.62091C3.33639 6.48643 3.36291 6.33413 3.33874 6.17703C3.31294 6.00935 3.23408 5.86296 3.10413 5.73302L2.69684 6.14031ZM1.65236 5.09583L2.69684 6.14031L3.10413 5.73302L2.05965 4.68854L1.65236 5.09583ZM1.32225 4.33922C1.32225 4.5596 1.39213 4.92906 1.69625 5.13181L2.01576 4.65255C1.98638 4.63297 1.95634 4.59653 1.93281 4.53536C1.90917 4.47388 1.89825 4.40229 1.89825 4.33922H1.32225ZM1.65236 3.58262C1.56147 3.67351 1.48226 3.79616 1.42556 3.91901C1.3696 4.04025 1.32225 4.19044 1.32225 4.33922H1.89825C1.89825 4.30368 1.91233 4.23883 1.94854 4.16039C1.984 4.08356 2.02766 4.0219 2.05965 3.98991L1.65236 3.58262ZM2.9426 2.29238L1.65236 3.58262L2.05965 3.98991L3.34989 2.69967L2.9426 2.29238ZM4.45581 2.29238C4.03614 1.8727 3.36227 1.8727 2.9426 2.29238L3.34989 2.69967C3.54462 2.50494 3.85379 2.50494 4.04852 2.69967L4.45581 2.29238ZM5.50029 3.33686L4.45581 2.29238L4.04852 2.69967L5.093 3.74415L5.50029 3.33686ZM5.81997 3.39016C5.69788 3.43086 5.5809 3.41746 5.50029 3.33686L5.093 3.74415C5.38104 4.03218 5.75557 4.01879 6.00212 3.9366L5.81997 3.39016ZM5.99169 3.17186C5.99169 3.24712 5.97318 3.29182 5.95461 3.31735C5.93762 3.34072 5.90666 3.36761 5.8412 3.38398L5.9809 3.94278C6.16119 3.89771 6.31456 3.80173 6.42044 3.65614C6.52476 3.5127 6.56769 3.34236 6.56769 3.17186H5.99169ZM5.99169 1.75874V3.17186H6.56769V1.75874H5.99169ZM7.07841 0.672022C6.48927 0.672022 5.99169 1.1696 5.99169 1.75874H6.56769C6.56769 1.48772 6.80739 1.24802 7.07841 1.24802V0.672022ZM8.92161 0.672022H7.07841V1.24802H8.92161V0.672022ZM10.0083 1.75874C10.0083 1.1696 9.51075 0.672022 8.92161 0.672022V1.24802C9.19263 1.24802 9.43233 1.48772 9.43233 1.75874H10.0083ZM10.0083 3.17186V1.75874H9.43233V3.17186H10.0083ZM10.18 3.39016C10.1611 3.38384 10.113 3.35365 10.0659 3.2909C10.0447 3.26254 10.0289 3.23424 10.0191 3.20994C10.0088 3.18455 10.0083 3.17176 10.0083 3.17186H9.43233C9.43233 3.3491 9.51509 3.51645 9.60513 3.6365C9.6963 3.75807 9.83254 3.88149 9.99789 3.9366L10.18 3.39016ZM10.4997 3.33686C10.4453 3.39123 10.4074 3.40453 10.3754 3.40945C10.3328 3.416 10.2701 3.4118 10.1588 3.38398L10.0191 3.94278C10.1536 3.9764 10.3059 4.00292 10.463 3.97875C10.6307 3.95296 10.7771 3.87409 10.907 3.74415L10.4997 3.33686ZM11.5442 2.29238L10.4997 3.33686L10.907 3.74415L11.9515 2.69967L11.5442 2.29238ZM13.0574 2.29238C12.6377 1.8727 11.9639 1.8727 11.5442 2.29238L11.9515 2.69967C12.1462 2.50494 12.4554 2.50494 12.6501 2.69967L13.0574 2.29238ZM14.3477 3.58262L13.0574 2.29238L12.6501 2.69967L13.9404 3.98991L14.3477 3.58262ZM14.6778 4.33922C14.6778 4.11884 14.6079 3.74938 14.3038 3.54663L13.9843 4.02589C14.0136 4.04548 14.0437 4.08191 14.0672 4.14309C14.0908 4.20456 14.1018 4.27615 14.1018 4.33922H14.6778ZM14.3477 5.09583C14.4385 5.00494 14.5178 4.88228 14.5745 4.75943C14.6304 4.63819 14.6778 4.488 14.6778 4.33922H14.1018C14.1018 4.37476 14.0877 4.43961 14.0515 4.51805C14.016 4.59488 13.9724 4.65655 13.9404 4.68854L14.3477 5.09583ZM13.3032 6.14031L14.3477 5.09583L13.9404 4.68854L12.8959 5.73302L13.3032 6.14031ZM13.2499 6.45999C13.2092 6.3379 13.2226 6.22091 13.3032 6.14031L12.8959 5.73302C12.6078 6.02105 12.6212 6.39559 12.7034 6.64214L13.2499 6.45999ZM13.4682 6.6317C13.3929 6.6317 13.3482 6.61319 13.3227 6.59463C13.2993 6.57763 13.2724 6.54668 13.256 6.48121L12.6972 6.62091C12.7423 6.80121 12.8383 6.95457 12.9839 7.06046C13.1273 7.16477 13.2977 7.2077 13.4682 7.2077V6.6317ZM14.839 9.56162C14.839 9.5444 14.8432 9.53372 14.8449 9.53007C14.8466 9.52644 14.8475 9.52601 14.8466 9.52694C14.8457 9.52786 14.8461 9.52698 14.8497 9.52528C14.8534 9.52358 14.8641 9.51938 14.8813 9.51938V10.0954C15.0364 10.0954 15.1674 10.0207 15.2539 9.93423C15.3404 9.84773 15.415 9.71673 15.415 9.56162H14.839ZM14.839 7.71842V9.56162H15.415V7.71842H14.839ZM14.8813 7.76066C14.8641 7.76066 14.8534 7.75646 14.8497 7.75476C14.8461 7.75307 14.8457 7.75218 14.8466 7.75311C14.8475 7.75404 14.8466 7.7536 14.8449 7.74997C14.8432 7.74633 14.839 7.73564 14.839 7.71842H15.415C15.415 7.56332 15.3404 7.43231 15.2539 7.34582C15.1674 7.25932 15.0364 7.18466 14.8813 7.18466V7.76066ZM13.4682 7.76066H14.8813V7.18466H13.4682V7.76066ZM12.159 6.91027C12.3896 7.44837 12.8638 7.76066 13.4682 7.76066V7.18466C13.0895 7.18466 12.8264 7.00543 12.6884 6.68337L12.159 6.91027ZM12.4658 5.36437C12.0823 5.74791 11.9245 6.3632 12.159 6.91027L12.6884 6.68337C12.5542 6.37028 12.6422 6.00253 12.8731 5.77167L12.4658 5.36437ZM13.5103 4.3199L12.4658 5.36438L12.8731 5.77167L13.9176 4.72719L13.5103 4.3199ZM13.5103 4.41999C13.493 4.40267 13.4834 4.38682 13.4788 4.37788C13.4739 4.36867 13.4721 4.36246 13.4716 4.36074C13.4708 4.35801 13.472 4.36162 13.472 4.36994C13.472 4.37826 13.4708 4.38187 13.4716 4.37914C13.4721 4.37742 13.4739 4.37122 13.4788 4.362C13.4834 4.35306 13.493 4.33721 13.5103 4.3199L13.9176 4.72719C13.9804 4.66434 14.0104 4.58998 14.0254 4.53738C14.0415 4.48089 14.048 4.42306 14.048 4.36994C14.048 4.31682 14.0415 4.25899 14.0254 4.2025C14.0104 4.1499 13.9804 4.07555 13.9176 4.0127L13.5103 4.41999ZM12.22 3.12975L13.5103 4.41999L13.9176 4.0127L12.6273 2.72246L12.22 3.12975ZM12.3201 3.12975C12.3028 3.14707 12.287 3.15661 12.278 3.16128C12.2688 3.16609 12.2626 3.16797 12.2609 3.16846C12.2582 3.16924 12.2618 3.16802 12.2701 3.16802C12.2784 3.16802 12.282 3.16924 12.2793 3.16846C12.2776 3.16797 12.2714 3.16609 12.2621 3.16128C12.2532 3.15661 12.2374 3.14707 12.22 3.12975L12.6273 2.72245C12.5645 2.6596 12.4901 2.62965 12.4375 2.61462C12.381 2.59848 12.3232 2.59202 12.2701 2.59202C12.217 2.59202 12.1591 2.59848 12.1026 2.61462C12.05 2.62965 11.9757 2.6596 11.9128 2.72246L12.3201 3.12975ZM11.2757 4.17423L12.3201 3.12975L11.9128 2.72246L10.8684 3.76694L11.2757 4.17423ZM9.72976 4.48106C10.2768 4.71551 10.8921 4.55776 11.2757 4.17423L10.8684 3.76694C10.6375 3.9978 10.2697 4.08581 9.95666 3.95163L9.72976 4.48106ZM8.87937 3.17186C8.87937 3.77626 9.19166 4.25044 9.72976 4.48106L9.95666 3.95163C9.6346 3.8136 9.45537 3.55051 9.45537 3.17186H8.87937ZM8.87937 1.75874V3.17186H9.45537V1.75874H8.87937ZM8.92161 1.80098C8.90439 1.80098 8.8937 1.79678 8.89006 1.79508C8.88643 1.79339 8.88599 1.7925 8.88692 1.79343C8.88785 1.79436 8.88696 1.79392 8.88527 1.79029C8.88357 1.78665 8.87937 1.77596 8.87937 1.75874H9.45537C9.45537 1.60364 9.38071 1.47263 9.29421 1.38614C9.20772 1.29964 9.07671 1.22498 8.92161 1.22498V1.80098ZM7.07841 1.80098H8.92161V1.22498H7.07841V1.80098ZM7.12065 1.75874C7.12065 1.77596 7.11645 1.78665 7.11475 1.79029C7.11305 1.79392 7.11217 1.79436 7.11309 1.79343C7.11402 1.7925 7.11359 1.79339 7.10996 1.79508C7.10631 1.79678 7.09563 1.80098 7.07841 1.80098V1.22498C6.9233 1.22498 6.7923 1.29964 6.7058 1.38614C6.6193 1.47263 6.54465 1.60364 6.54465 1.75874H7.12065ZM7.12065 3.17186V1.75874H6.54465V3.17186H7.12065ZM6.27026 4.48106C6.80836 4.25044 7.12065 3.77626 7.12065 3.17186H6.54465C6.54465 3.55051 6.36542 3.8136 6.04336 3.95163L6.27026 4.48106ZM4.72436 4.17423C5.10789 4.55776 5.72319 4.71551 6.27026 4.48106L6.04336 3.95163C5.73027 4.08581 5.36252 3.9978 5.13165 3.76694L4.72436 4.17423ZM3.67988 3.12975L4.72436 4.17423L5.13165 3.76694L4.08717 2.72246L3.67988 3.12975ZM3.77997 3.12975C3.76266 3.14707 3.74681 3.15661 3.73787 3.16128C3.72865 3.16609 3.72245 3.16797 3.72073 3.16846C3.718 3.16924 3.72161 3.16802 3.72993 3.16802C3.73825 3.16802 3.74186 3.16924 3.73913 3.16846C3.73741 3.16797 3.7312 3.16609 3.72199 3.16128C3.71305 3.15661 3.6972 3.14707 3.67988 3.12975L4.08717 2.72246C4.02432 2.6596 3.94997 2.62965 3.89737 2.61462C3.84088 2.59848 3.78305 2.59202 3.72993 2.59202C3.67681 2.59202 3.61898 2.59848 3.56249 2.61462C3.50989 2.62965 3.43553 2.6596 3.37268 2.72246L3.77997 3.12975ZM2.48973 4.41999L3.77997 3.12975L3.37268 2.72246L2.08244 4.0127L2.48973 4.41999ZM2.48973 4.3199C2.50705 4.33721 2.5166 4.35306 2.52126 4.362C2.52607 4.37122 2.52796 4.37742 2.52845 4.37914C2.52923 4.38187 2.52801 4.37826 2.52801 4.36994C2.52801 4.36162 2.52923 4.35801 2.52845 4.36074C2.52796 4.36246 2.52607 4.36867 2.52126 4.37788C2.5166 4.38682 2.50705 4.40267 2.48973 4.41999L2.08244 4.0127C2.01959 4.07555 1.98964 4.1499 1.97461 4.2025C1.95847 4.25899 1.95201 4.31682 1.95201 4.36994C1.95201 4.42306 1.95847 4.48089 1.97461 4.53738C1.98964 4.58998 2.01959 4.66434 2.08244 4.72719L2.48973 4.3199ZM3.53421 5.36438L2.48973 4.3199L2.08244 4.72719L3.12692 5.77167L3.53421 5.36438ZM3.84104 6.91027C4.0755 6.3632 3.91775 5.74791 3.53421 5.36438L3.12692 5.77167C3.35779 6.00253 3.4458 6.37028 3.31161 6.68337L3.84104 6.91027ZM2.53185 7.76066C3.13624 7.76066 3.61043 7.44837 3.84104 6.91027L3.31161 6.68337C3.17359 7.00543 2.91049 7.18466 2.53185 7.18466V7.76066ZM1.11873 7.76066H2.53185V7.18466H1.11873V7.76066ZM1.16097 7.71842C1.16097 7.73564 1.15677 7.74633 1.15507 7.74997C1.15337 7.7536 1.15249 7.75404 1.15341 7.75311C1.15434 7.75218 1.15391 7.75307 1.15028 7.75476C1.14663 7.75646 1.13595 7.76066 1.11873 7.76066V7.18466C0.963621 7.18466 0.83262 7.25932 0.746121 7.34582C0.659621 7.43231 0.584967 7.56332 0.584967 7.71842H1.16097ZM1.16097 9.56162V7.71842H0.584967V9.56162H1.16097ZM1.11873 9.51938C1.13595 9.51938 1.14663 9.52358 1.15028 9.52528C1.15391 9.52698 1.15434 9.52786 1.15341 9.52694C1.15249 9.52601 1.15337 9.52644 1.15507 9.53007C1.15677 9.53372 1.16097 9.5444 1.16097 9.56162H0.584967C0.584967 9.71673 0.659621 9.84773 0.746121 9.93423C0.83262 10.0207 0.963621 10.0954 1.11873 10.0954V9.51938ZM2.53185 9.51938H1.11873V10.0954H2.53185V9.51938ZM3.84104 10.3698C3.61043 9.83167 3.13624 9.51938 2.53185 9.51938V10.0954C2.91049 10.0954 3.17359 10.2746 3.31161 10.5967L3.84104 10.3698ZM3.53421 11.9157C3.91775 11.5321 4.0755 10.9168 3.84104 10.3698L3.31161 10.5967C3.4458 10.9098 3.35779 11.2775 3.12692 11.5084L3.53421 11.9157ZM2.48973 12.9601L3.53421 11.9157L3.12692 11.5084L2.08244 12.5529L2.48973 12.9601ZM2.48973 12.8601C2.50705 12.8774 2.5166 12.8932 2.52126 12.9022C2.52607 12.9114 2.52796 12.9176 2.52845 12.9193C2.52923 12.922 2.52801 12.9184 2.52801 12.9101C2.52801 12.9018 2.52923 12.8982 2.52845 12.9009C2.52796 12.9026 2.52607 12.9088 2.52126 12.918C2.5166 12.927 2.50705 12.9428 2.48973 12.9601L2.08244 12.5529C2.01959 12.6157 1.98964 12.6901 1.97461 12.7427C1.95847 12.7992 1.95201 12.857 1.95201 12.9101C1.95201 12.9632 1.95847 13.0211 1.97461 13.0775C1.98964 13.1301 2.01959 13.2045 2.08244 13.2673L2.48973 12.8601ZM3.77997 14.1503L2.48973 12.8601L2.08244 13.2673L3.37268 14.5576L3.77997 14.1503ZM3.67988 14.1503C3.6972 14.133 3.71305 14.1234 3.72199 14.1188C3.7312 14.114 3.73741 14.1121 3.73913 14.1116C3.74186 14.1108 3.73825 14.112 3.72993 14.112C3.72161 14.112 3.718 14.1108 3.72073 14.1116C3.72245 14.1121 3.72865 14.114 3.73787 14.1188C3.74681 14.1234 3.76265 14.133 3.77997 14.1503L3.37268 14.5576C3.43553 14.6204 3.50989 14.6504 3.56249 14.6654C3.61898 14.6816 3.67681 14.688 3.72993 14.688C3.78305 14.688 3.84088 14.6816 3.89737 14.6654C3.94997 14.6504 4.02432 14.6204 4.08717 14.5576L3.67988 14.1503ZM4.72436 13.1058L3.67988 14.1503L4.08717 14.5576L5.13165 13.5131L4.72436 13.1058ZM5.72673 12.7143C5.33224 12.7143 5.02624 12.8758 4.75521 13.0791L5.10081 13.5399C5.3213 13.3745 5.50681 13.2903 5.72673 13.2903V12.7143ZM6.28561 12.8061C6.17797 12.7523 6.06048 12.7324 5.97042 12.7234C5.87722 12.7141 5.78656 12.7143 5.72673 12.7143V13.2903C5.78977 13.2903 5.85271 13.2905 5.91311 13.2965C5.97666 13.3029 6.01276 13.3137 6.02801 13.3213L6.28561 12.8061ZM7.12065 14.1082C7.12065 13.5038 6.80836 13.0296 6.27026 12.799L6.04336 13.3284C6.36542 13.4664 6.54465 13.7295 6.54465 14.1082H7.12065ZM7.12065 15.5213V14.1082H6.54465V15.5213H7.12065ZM7.07841 15.4791C7.09563 15.4791 7.10631 15.4833 7.10996 15.485C7.11359 15.4867 7.11402 15.4875 7.11309 15.4866C7.11217 15.4857 7.11305 15.4861 7.11475 15.4898C7.11645 15.4934 7.12065 15.5041 7.12065 15.5213H6.54465C6.54465 15.6764 6.6193 15.8074 6.7058 15.8939C6.7923 15.9804 6.9233 16.0551 7.07841 16.0551V15.4791ZM8.92161 15.4791H7.07841V16.0551H8.92161V15.4791ZM8.87937 15.5213C8.87937 15.5041 8.88357 15.4934 8.88527 15.4898C8.88696 15.4861 8.88785 15.4857 8.88692 15.4866C8.88599 15.4875 8.88643 15.4867 8.89006 15.485C8.8937 15.4833 8.90439 15.4791 8.92161 15.4791V16.0551C9.07671 16.0551 9.20772 15.9804 9.29421 15.8939C9.38071 15.8074 9.45537 15.6764 9.45537 15.5213H8.87937ZM8.87937 14.1082V15.5213H9.45537V14.1082H8.87937ZM9.72976 12.799C9.19166 13.0296 8.87937 13.5038 8.87937 14.1082H9.45537C9.45537 13.7295 9.6346 13.4664 9.95666 13.3284L9.72976 12.799ZM11.2757 13.1058C10.8921 12.7223 10.2768 12.5645 9.72976 12.799L9.95666 13.3284C10.2697 13.1942 10.6375 13.2822 10.8684 13.5131L11.2757 13.1058ZM12.3201 14.1503L11.2757 13.1058L10.8684 13.5131L11.9128 14.5576L12.3201 14.1503ZM12.22 14.1503C12.2374 14.133 12.2532 14.1234 12.2621 14.1188C12.2714 14.114 12.2776 14.1121 12.2793 14.1116C12.282 14.1108 12.2784 14.112 12.2701 14.112C12.2618 14.112 12.2582 14.1108 12.2609 14.1116C12.2626 14.1121 12.2688 14.114 12.278 14.1188C12.287 14.1234 12.3028 14.133 12.3201 14.1503L11.9128 14.5576C11.9757 14.6204 12.05 14.6504 12.1026 14.6654C12.1591 14.6816 12.217 14.688 12.2701 14.688C12.3232 14.688 12.381 14.6816 12.4375 14.6654C12.4901 14.6504 12.5645 14.6204 12.6273 14.5576L12.22 14.1503ZM13.5103 12.8601L12.22 14.1503L12.6273 14.5576L13.9176 13.2673L13.5103 12.8601ZM13.5103 12.9601C13.493 12.9428 13.4834 12.927 13.4788 12.918C13.4739 12.9088 13.4721 12.9026 13.4716 12.9009C13.4708 12.8982 13.472 12.9018 13.472 12.9101C13.472 12.9184 13.4708 12.922 13.4716 12.9193C13.4721 12.9176 13.4739 12.9114 13.4788 12.9022C13.4834 12.8932 13.493 12.8774 13.5103 12.8601L13.9176 13.2673C13.9804 13.2045 14.0104 13.1301 14.0254 13.0775C14.0415 13.0211 14.048 12.9632 14.048 12.9101C14.048 12.857 14.0415 12.7992 14.0254 12.7427C14.0104 12.6901 13.9804 12.6157 13.9176 12.5529L13.5103 12.9601ZM12.4658 11.9157L13.5103 12.9601L13.9176 12.5529L12.8731 11.5084L12.4658 11.9157ZM12.159 10.3698C11.9245 10.9168 12.0823 11.5321 12.4658 11.9157L12.8731 11.5084C12.6422 11.2775 12.5542 10.9098 12.6884 10.5967L12.159 10.3698ZM13.4682 9.51938C12.8638 9.51938 12.3896 9.83167 12.159 10.3698L12.6884 10.5967C12.8264 10.2746 13.0895 10.0954 13.4682 10.0954V9.51938ZM14.8813 9.51938H13.4682V10.0954H14.8813V9.51938Z" fill="#717171"/>
<path fill-rule="evenodd" clip-rule="evenodd" d="M5.41953 8.64005C5.41953 7.22693 6.58689 6.05957 8.00001 6.05957C9.41313 6.05957 10.5805 7.22693 10.5805 8.64005C10.5805 10.0532 9.41313 11.2205 8.00001 11.2205C6.58689 11.2205 5.41953 10.0532 5.41953 8.64005ZM6.03393 8.64005C6.03393 9.68453 6.89409 10.6061 8.00001 10.6061C9.10593 10.6061 9.96608 9.68453 9.96608 8.64005C9.96608 7.59557 9.04449 6.67397 8.00001 6.67397C6.95553 6.67397 6.03393 7.59557 6.03393 8.64005Z" fill="#717171"/>
<path d="M8.00001 5.77157C6.42783 5.77157 5.13153 7.06787 5.13153 8.64005H5.70753C5.70753 7.38599 6.74594 6.34757 8.00001 6.34757V5.77157ZM10.8685 8.64005C10.8685 7.06787 9.57218 5.77157 8.00001 5.77157V6.34757C9.25407 6.34757 10.2925 7.38599 10.2925 8.64005H10.8685ZM8.00001 11.5085C9.57218 11.5085 10.8685 10.2122 10.8685 8.64005H10.2925C10.2925 9.89411 9.25407 10.9325 8.00001 10.9325V11.5085ZM5.13153 8.64005C5.13153 10.2122 6.42783 11.5085 8.00001 11.5085V10.9325C6.74594 10.9325 5.70753 9.89411 5.70753 8.64005H5.13153ZM8.00001 10.3181C7.05895 10.3181 6.32193 9.53134 6.32193 8.64005H5.74593C5.74593 9.83772 6.72922 10.8941 8.00001 10.8941V10.3181ZM9.67808 8.64005C9.67808 9.53134 8.94106 10.3181 8.00001 10.3181V10.8941C9.27079 10.8941 10.2541 9.83772 10.2541 8.64005H9.67808ZM8.00001 6.96197C8.88543 6.96197 9.67808 7.75463 9.67808 8.64005H10.2541C10.2541 7.43651 9.20354 6.38597 8.00001 6.38597V6.96197ZM6.32193 8.64005C6.32193 7.75463 7.11458 6.96197 8.00001 6.96197V6.38597C6.79647 6.38597 5.74593 7.43651 5.74593 8.64005H6.32193Z" fill="#717171"/>
</svg>
