<svg width="15" height="14" viewBox="0 0 15 14" fill="none" xmlns="http://www.w3.org/2000/svg">
<path fill-rule="evenodd" clip-rule="evenodd" d="M11.6375 12.8992C11.7216 13.2716 11.3944 13.504 11.0695 13.3113L7.59199 11.2492C7.55127 11.225 7.44858 11.2253 7.40831 11.2492L3.93079 13.3113C3.60206 13.5063 3.27969 13.2673 3.36277 12.8992L4.25198 8.95899C4.2624 8.91285 4.23041 8.8154 4.19522 8.78453L1.15678 6.11883C0.869555 5.86684 0.997499 5.48681 1.37374 5.45196L5.40083 5.07895C5.44799 5.07459 5.53091 5.01409 5.54943 4.97113L7.14909 1.26147C7.30031 0.910802 7.70175 0.914888 7.85121 1.26147L9.45087 4.97113C9.4696 5.01457 9.55283 5.07463 9.59947 5.07895L13.6266 5.45196C14.0072 5.48722 14.1274 5.86978 13.8435 6.11883L10.8051 8.78453C10.7695 8.81575 10.738 8.91336 10.7483 8.95899L11.6375 12.8992ZM3.96162 12.6781L7.13489 10.7893C7.34325 10.6658 7.65568 10.6649 7.86541 10.7893L11.0374 12.6703L10.2259 9.07658C10.1726 8.8405 10.2684 8.54351 10.4516 8.38274L13.2187 5.95509L9.55001 5.61148C9.30873 5.58913 9.05549 5.40639 8.95902 5.18266L7.4971 1.79244L6.04128 5.18266C5.94544 5.40493 5.69316 5.58898 5.45029 5.61148L1.78029 5.95141L4.54866 8.38274C4.7307 8.54245 4.82802 8.83895 4.7744 9.07658L3.96162 12.6781Z" fill="#222222"/>
<path d="M11.0695 13.3113L11.2225 13.0533L11.0695 13.3113ZM11.6375 12.8992L11.9302 12.8331L11.6375 12.8992ZM7.59199 11.2492L7.43897 11.5072L7.43897 11.5072L7.59199 11.2492ZM7.40831 11.2492L7.25529 10.9911L7.25529 10.9911L7.40831 11.2492ZM3.93079 13.3113L4.0838 13.5694L3.93079 13.3113ZM3.36277 12.8992L3.65541 12.9652L3.36277 12.8992ZM4.25198 8.95899L4.54462 9.02503L4.25198 8.95899ZM4.19522 8.78453L3.99737 9.01004L4.19522 8.78453ZM1.15678 6.11883L1.35463 5.89332H1.35463L1.15678 6.11883ZM1.37374 5.45196L1.40141 5.75068H1.40141L1.37374 5.45196ZM5.40083 5.07895L5.4285 5.37768H5.4285L5.40083 5.07895ZM5.54943 4.97113L5.82491 5.08992L5.82491 5.08992L5.54943 4.97113ZM7.14909 1.26147L6.87361 1.14268V1.14268L7.14909 1.26147ZM7.85121 1.26147L8.12669 1.14268V1.14268L7.85121 1.26147ZM9.45087 4.97113L9.72635 4.85234V4.85234L9.45087 4.97113ZM9.59947 5.07895L9.62714 4.78023L9.62714 4.78023L9.59947 5.07895ZM13.6266 5.45196L13.6542 5.15324L13.6266 5.45196ZM13.8435 6.11883L14.0414 6.34434L13.8435 6.11883ZM10.8051 8.78453L10.6072 8.55902V8.55902L10.8051 8.78453ZM10.7483 8.95899L10.4557 9.02503V9.02503L10.7483 8.95899ZM7.13489 10.7893L6.98188 10.5313L6.98146 10.5315L7.13489 10.7893ZM3.96162 12.6781L3.66898 12.612L3.51534 13.2928L4.11506 12.9359L3.96162 12.6781ZM7.86541 10.7893L7.71239 11.0474H7.71239L7.86541 10.7893ZM11.0374 12.6703L10.8844 12.9284L11.4835 13.2836L11.3301 12.6042L11.0374 12.6703ZM10.2259 9.07658L9.93326 9.14262L9.93327 9.14266L10.2259 9.07658ZM10.4516 8.38274L10.2538 8.15723L10.4516 8.38274ZM13.2187 5.95509L13.4166 6.18061L13.9401 5.72134L13.2467 5.6564L13.2187 5.95509ZM9.55001 5.61148L9.57799 5.31279L9.57768 5.31276L9.55001 5.61148ZM8.95902 5.18266L8.68354 5.30145L8.68354 5.30145L8.95902 5.18266ZM7.4971 1.79244L7.77258 1.67364L7.49652 1.03347L7.22144 1.67406L7.4971 1.79244ZM6.04128 5.18266L6.31676 5.30145L6.31694 5.30103L6.04128 5.18266ZM5.45029 5.61148L5.42262 5.31276L5.45029 5.61148ZM1.78029 5.95141L1.75262 5.65269L1.05871 5.71696L1.58232 6.17682L1.78029 5.95141ZM4.54866 8.38274L4.35069 8.60815L4.35081 8.60825L4.54866 8.38274ZM4.7744 9.07658L4.48176 9.01054L4.7744 9.07658ZM10.9165 13.5694C11.1656 13.7171 11.4593 13.7211 11.6822 13.5606C11.9061 13.3994 11.9946 13.1185 11.9302 12.8331L11.3449 12.9652C11.3552 13.0107 11.3501 13.0386 11.3456 13.0522C11.3411 13.0655 11.3352 13.0711 11.3316 13.0737C11.3279 13.0764 11.3202 13.0805 11.3051 13.0806C11.29 13.0807 11.2617 13.0765 11.2225 13.0533L10.9165 13.5694ZM7.43897 11.5072L10.9165 13.5694L11.2225 13.0533L7.74501 10.9911L7.43897 11.5072ZM7.56133 11.5072C7.5434 11.5178 7.52872 11.5233 7.52091 11.5259C7.51253 11.5287 7.5066 11.53 7.50392 11.5305C7.49896 11.5314 7.49806 11.5312 7.50026 11.5312C7.50247 11.5311 7.50151 11.5314 7.49647 11.5305C7.49373 11.53 7.48776 11.5287 7.47934 11.5259C7.47146 11.5233 7.45682 11.5178 7.43897 11.5072L7.74501 10.9911C7.65345 10.9368 7.55052 10.9311 7.4997 10.9312C7.44896 10.9312 7.34639 10.9371 7.25529 10.9911L7.56133 11.5072ZM4.0838 13.5694L7.56133 11.5072L7.25529 10.9911L3.77777 13.0533L4.0838 13.5694ZM3.07012 12.8331C3.00632 13.1158 3.09348 13.3964 3.31527 13.5586C3.53785 13.7213 3.83235 13.7185 4.0838 13.5694L3.77777 13.0533C3.73754 13.0771 3.70916 13.0811 3.69463 13.0809C3.68026 13.0808 3.67301 13.0769 3.66943 13.0742C3.66578 13.0716 3.65956 13.0656 3.65489 13.0515C3.65018 13.0374 3.64542 13.0094 3.65541 12.9652L3.07012 12.8331ZM3.95934 8.89295L3.07012 12.8331L3.65541 12.9652L4.54462 9.02503L3.95934 8.89295ZM3.99737 9.01004C3.98169 8.99629 3.97189 8.98402 3.96698 8.97737C3.96171 8.97025 3.95867 8.96498 3.95734 8.96255C3.95489 8.95808 3.95484 8.95708 3.95551 8.95912C3.95618 8.96116 3.9556 8.96026 3.95494 8.9551C3.95457 8.95231 3.95392 8.94619 3.95399 8.93728C3.95405 8.92893 3.95476 8.91325 3.95934 8.89295L4.54462 9.02503C4.56809 8.92103 4.54167 8.82127 4.5259 8.77295C4.51014 8.72468 4.47275 8.62893 4.39307 8.55902L3.99737 9.01004ZM0.958929 6.34434L3.99737 9.01004L4.39307 8.55902L1.35463 5.89332L0.958929 6.34434ZM1.34607 5.15324C1.05768 5.17995 0.817513 5.3491 0.731526 5.61009C0.645154 5.87226 0.739127 6.1515 0.958929 6.34434L1.35463 5.89332C1.3195 5.8625 1.30707 5.83686 1.30278 5.82323C1.29855 5.80977 1.30006 5.8019 1.30139 5.79784C1.30276 5.79369 1.3065 5.78591 1.31855 5.77704C1.33068 5.76812 1.35601 5.75489 1.40141 5.75068L1.34607 5.15324ZM5.37316 4.78023L1.34607 5.15324L1.40141 5.75068L5.4285 5.37768L5.37316 4.78023ZM5.27395 4.85234C5.28223 4.83316 5.29089 4.82005 5.2957 4.81333C5.30085 4.80613 5.30493 4.80161 5.30682 4.79961C5.31031 4.79592 5.31122 4.79558 5.30946 4.79686C5.30769 4.79815 5.30833 4.79736 5.31297 4.79516C5.3155 4.79396 5.32107 4.79147 5.32953 4.7888C5.33745 4.78629 5.35252 4.78215 5.37316 4.78023L5.4285 5.37768C5.53448 5.36786 5.62114 5.31207 5.66228 5.28217C5.7033 5.25234 5.78293 5.18727 5.82491 5.08992L5.27395 4.85234ZM6.87361 1.14268L5.27395 4.85234L5.82491 5.08992L7.42457 1.38026L6.87361 1.14268ZM8.12669 1.14268C8.01194 0.876586 7.77651 0.701021 7.50192 0.700004C7.2262 0.698984 6.98942 0.874125 6.87361 1.14268L7.42457 1.38026C7.44303 1.33746 7.46359 1.3177 7.47535 1.30934C7.48699 1.30107 7.49517 1.29998 7.4997 1.3C7.50433 1.30002 7.51301 1.30124 7.52518 1.30995C7.53742 1.3187 7.55776 1.33861 7.57573 1.38026L8.12669 1.14268ZM9.72635 4.85234L8.12669 1.14268L7.57573 1.38026L9.17539 5.08992L9.72635 4.85234ZM9.62714 4.78023C9.64787 4.78215 9.66298 4.78632 9.67083 4.7888C9.67925 4.79146 9.68478 4.79393 9.68726 4.7951C9.69184 4.79725 9.69242 4.79801 9.69066 4.79673C9.68889 4.79545 9.68985 4.79582 9.6934 4.79957C9.69533 4.80161 9.69944 4.80615 9.70462 4.81338C9.70947 4.82016 9.71811 4.83324 9.72635 4.85234L9.17539 5.08992C9.21758 5.18777 9.2976 5.2529 9.33875 5.28269C9.37987 5.31247 9.46635 5.36791 9.5718 5.37768L9.62714 4.78023ZM13.6542 5.15324L9.62714 4.78023L9.5718 5.37768L13.5989 5.75068L13.6542 5.15324ZM14.0414 6.34434C14.2592 6.15327 14.3539 5.87518 14.2699 5.61347C14.1855 5.35076 13.9453 5.1802 13.6542 5.15324L13.5989 5.75068C13.6455 5.755 13.6708 5.76848 13.6824 5.77708C13.6939 5.78557 13.6973 5.79291 13.6986 5.79698C13.7 5.80114 13.7015 5.80954 13.697 5.82365C13.6925 5.83785 13.6799 5.86332 13.6457 5.89332L14.0414 6.34434ZM11.0029 9.01004L14.0414 6.34434L13.6457 5.89332L10.6072 8.55902L11.0029 9.01004ZM11.041 8.89295C11.0456 8.91334 11.0463 8.92905 11.0463 8.93734C11.0464 8.94621 11.0458 8.95228 11.0454 8.95503C11.0448 8.9601 11.0442 8.96094 11.0449 8.95891C11.0455 8.95686 11.0455 8.95792 11.043 8.96247C11.0416 8.96494 11.0386 8.97025 11.0333 8.97741C11.0283 8.98411 11.0185 8.99635 11.0029 9.01004L10.6072 8.55902C10.5271 8.62928 10.4898 8.72543 10.4741 8.77381C10.4585 8.82207 10.4323 8.92156 10.4557 9.02503L11.041 8.89295ZM11.9302 12.8331L11.041 8.89295L10.4557 9.02503L11.3449 12.9652L11.9302 12.8331ZM6.98146 10.5315L3.80818 12.4203L4.11506 12.9359L7.28833 11.0471L6.98146 10.5315ZM8.01842 10.5313C7.71404 10.3508 7.28426 10.352 6.98188 10.5313L7.28791 11.0474C7.40224 10.9796 7.59731 10.9791 7.71239 11.0474L8.01842 10.5313ZM11.1905 12.4123L8.01842 10.5313L7.71239 11.0474L10.8844 12.9284L11.1905 12.4123ZM9.93327 9.14266L10.7448 12.7364L11.3301 12.6042L10.5185 9.0105L9.93327 9.14266ZM10.2538 8.15723C9.98773 8.39065 9.85585 8.7996 9.93326 9.14262L10.5185 9.01053C10.4894 8.88141 10.5491 8.69636 10.6495 8.60825L10.2538 8.15723ZM13.0209 5.72958L10.2538 8.15723L10.6495 8.60825L13.4166 6.18061L13.0209 5.72958ZM9.52204 5.91017L13.1908 6.25379L13.2467 5.6564L9.57799 5.31279L9.52204 5.91017ZM8.68354 5.30145C8.82368 5.62645 9.17227 5.87777 9.52234 5.9102L9.57768 5.31276C9.44519 5.30048 9.2873 5.18633 9.2345 5.06387L8.68354 5.30145ZM7.22162 1.91123L8.68354 5.30145L9.2345 5.06387L7.77258 1.67364L7.22162 1.91123ZM6.31694 5.30103L7.77276 1.91081L7.22144 1.67406L5.76562 5.06429L6.31694 5.30103ZM5.47795 5.9102C5.83034 5.87756 6.17754 5.62432 6.31676 5.30145L5.7658 5.06387C5.71334 5.18553 5.55598 5.3004 5.42262 5.31276L5.47795 5.9102ZM1.80796 6.25013L5.47795 5.9102L5.42262 5.31276L1.75262 5.65269L1.80796 6.25013ZM4.74662 8.15733L1.97825 5.726L1.58232 6.17682L4.35069 8.60815L4.74662 8.15733ZM5.06704 9.14262C5.14496 8.79733 5.01083 8.38912 4.7465 8.15723L4.35081 8.60825C4.45058 8.69579 4.51109 8.88056 4.48176 9.01054L5.06704 9.14262ZM4.25426 12.7441L5.06704 9.14262L4.48176 9.01054L3.66898 12.612L4.25426 12.7441Z" fill="#717171"/>
</svg>
